<svg width="78" height="85" viewBox="0 0 78 85" fill="none" xmlns="http://www.w3.org/2000/svg">
<path d="M43.9002 0.600014H29.5003V4.20001H43.9002C60.6634 4.20001 74.3002 19.5414 74.3002 38.4C74.3002 57.2586 60.6634 72.6 43.9002 72.6H7.76266L13.0315 66.6726L10.7691 64.1274L1.63786 74.4L10.7691 84.6726L13.0315 82.1274L7.76266 76.2H43.9002C62.4282 76.2 77.5002 59.244 77.5002 38.4C77.5002 17.556 62.4282 0.600014 43.9002 0.600014Z" fill="#F6E9E9"/>
<path d="M19.8001 4.20001H24.6001V0.600021H19.8001V4.20001Z" fill="#E0D0D0"/>
<path d="M10.2 4.20001H15V0.600021H10.2V4.20001Z" fill="#CEC0C0"/>
<path d="M0.599899 4.20001H5.3999V0.600021H0.599899V4.20001Z" fill="#AAA4A4"/>
</svg>
