<svg width="580" height="514" viewBox="0 0 580 514" fill="none" xmlns="http://www.w3.org/2000/svg">
<path d="M51.9249 110.038L45.4292 126.782L31.4564 120.141C24.9506 117.049 17.2205 120.869 14.1952 128.675L1.21397 162.187C-1.81128 169.994 1.01161 178.82 7.52754 181.912L21.5004 188.554L15.0047 205.31C11.9794 213.117 14.8023 221.943 21.3182 225.034L40.6839 234.23C47.1897 237.321 54.9198 233.502 57.945 225.695L64.4407 208.939L98.791 225.247L122.72 163.487L88.3797 147.179L94.8754 130.423C97.9006 122.616 95.0777 113.79 88.5618 110.698L69.1962 101.503C62.6701 98.4114 54.9501 102.231 51.9249 110.038Z" fill="#BE8400"/>
<path d="M473.408 281.283L417.567 425.39L220.976 307.649L260.861 204.716L473.408 281.283Z" fill="#E5B55B"/>
<path d="M218.364 172.346L170.497 295.866L97.2935 280.566C87.8232 278.584 82.4405 267.406 86.2347 257.594L135.246 131.128C139.05 121.317 150.079 117.934 157.9 124.162L218.364 172.346Z" fill="#E5B55B"/>
<path d="M266.849 189.282L214.994 323.095C209.49 337.308 194.617 343.883 181.777 337.79C168.938 331.697 162.998 315.232 168.503 301.018L220.357 167.205C225.861 152.992 240.734 146.417 253.574 152.51C266.413 158.603 272.353 175.068 266.849 189.282Z" fill="#BE8400"/>
<path d="M525.21 318.066L477.342 441.586C470.735 458.644 452.887 466.53 437.477 459.216C422.068 451.902 414.945 432.144 421.552 415.085L469.42 291.565C476.027 274.507 493.875 266.622 509.284 273.936C524.684 281.25 531.817 301.007 525.21 318.066Z" fill="#D9A72E"/>
<path d="M578.358 294.556L498.579 500.423C494.177 511.791 482.279 517.055 472.009 512.183C461.739 507.311 456.984 494.139 461.385 482.77L541.165 276.904C545.566 265.535 557.465 260.271 567.735 265.143C578.004 270.015 582.76 283.187 578.358 294.556Z" fill="#BA8100"/>
<path d="M312.356 64.0856C307.533 58.5761 299.341 58.1759 294.052 63.0718L250.937 102.946C245.609 107.868 245.168 116.313 249.952 121.782C252.518 124.73 256.057 126.211 259.596 126.211C262.681 126.211 265.793 125.077 268.255 122.796L311.37 82.9221C316.698 77.9995 317.139 69.5552 312.356 64.0857V64.0856Z" fill="#D1D4D1" stroke="black"/>
<path d="M208.734 6.50033C205.494 2.64222 200.02 2.40465 196.495 5.94917L164.654 38.1635C161.137 41.727 160.912 47.7327 164.152 51.5909C165.858 53.6245 168.188 54.6507 170.518 54.6507C172.614 54.6507 174.719 53.8145 176.391 52.1325L208.231 19.9182C211.757 16.3642 211.973 10.3585 208.734 6.50033Z" fill="#D1D4D1" stroke="black"/>
<path d="M202.488 102.081C204.795 102.081 207.112 101.219 209.014 99.438L224.464 84.978C228.734 80.9906 229.27 73.9231 225.658 69.1964C222.046 64.4698 215.672 63.8649 211.402 67.8747L195.952 82.3347C191.682 86.3221 191.146 93.3897 194.758 98.1163C196.761 100.737 199.615 102.081 202.488 102.081Z" fill="#D1D4D1"/>
<path d="M281.355 2.65047L242.725 38.8171C238.455 42.8045 237.919 49.8721 241.531 54.5988C243.534 57.2197 246.388 58.5638 249.271 58.5638C251.578 58.5638 253.895 57.7013 255.797 55.9204L294.427 19.7538C298.697 15.7663 299.233 8.69879 295.621 3.97214C292.009 -0.754501 285.625 -1.34813 281.355 2.65047Z" fill="#D1D4D1"/>
<path d="M404.842 60.3114C401.159 55.6744 394.765 55.2152 390.566 59.2922L352.553 96.2541C348.354 100.331 347.939 107.41 351.632 112.058C353.625 114.578 356.428 115.866 359.231 115.866C361.598 115.866 363.986 114.948 365.908 113.077L403.921 76.1155C408.12 72.0384 408.535 64.9597 404.842 60.3114Z" fill="#D1D4D1"/>
<path d="M304.434 157.233C306.428 159.753 309.23 161.041 312.033 161.041C314.4 161.041 316.788 160.123 318.711 158.253L329.972 147.298C334.171 143.221 334.586 136.143 330.893 131.494C327.21 126.857 320.815 126.398 316.616 130.475L305.355 141.429C301.156 145.506 300.741 152.585 304.434 157.233Z" fill="#D1D4D1"/>
<path d="M426.426 130.102C420.783 126.92 412.044 127.823 406.887 132.014L364.846 166.153C359.65 170.369 359.978 176.353 365.574 179.503C368.579 181.202 372.477 181.733 376.237 181.226C379.514 180.784 382.712 179.543 385.113 177.59L427.155 143.451C432.35 139.236 432.023 133.251 426.426 130.102L426.426 130.102Z" fill="#D1D4D1"/>
<path d="M354.105 387.386L406.404 257.146L387.049 250.168L336.257 376.69L354.105 387.386Z" fill="#F9C97D"/>
<path d="M317.852 365.679L367.116 242.988L347.761 236.022L300.004 354.983L317.852 365.679Z" fill="#F9C97D"/>
</svg>
