<svg width="580" height="513" viewBox="0 0 580 513" fill="none" xmlns="http://www.w3.org/2000/svg">
<path d="M51.9249 114.252L45.4292 130.781L31.4564 124.225C24.9506 121.173 17.2205 124.943 14.1952 132.649L1.21397 165.729C-1.81128 173.435 1.01161 182.147 7.52754 185.198L21.5004 191.755L15.0047 208.294C11.9794 216 14.8023 224.713 21.3182 227.764L40.6839 236.841C47.1897 239.893 54.9198 236.122 57.9451 228.416L64.4408 211.877L98.791 227.974L122.72 167.011L88.3797 150.914L94.8754 134.374C97.9007 126.668 95.0778 117.956 88.5618 114.904L69.1962 105.827C62.6701 102.776 54.9502 106.546 51.9249 114.252Z" fill="#BE8400"/>
<path d="M473.407 283.287L417.567 425.534L220.976 309.313L260.861 207.708L473.407 283.287Z" fill="#E5B55B"/>
<path d="M218.365 175.757L170.497 297.683L97.2938 282.58C87.8234 280.623 82.4407 269.589 86.2349 259.904L135.246 135.071C139.05 125.386 150.079 122.047 157.9 128.194L218.365 175.757Z" fill="#E5B55B"/>
<path d="M266.848 192.474L214.994 324.56C209.49 338.59 194.617 345.08 181.777 339.065C168.937 333.051 162.998 316.798 168.502 302.768L220.357 170.682C225.861 156.652 240.734 150.162 253.574 156.177C266.413 162.191 272.352 178.443 266.848 192.474Z" fill="#BE8400"/>
<path d="M525.209 319.595L477.342 441.521C470.735 458.359 452.887 466.143 437.477 458.923C422.068 451.704 414.945 432.201 421.552 415.363L469.419 293.437C476.026 276.599 493.874 268.815 509.284 276.035C524.683 283.254 531.816 302.757 525.209 319.595Z" fill="#D9A72E"/>
<path d="M578.358 296.388L498.579 499.598C494.177 510.82 482.279 516.016 472.009 511.207C461.739 506.397 456.984 493.395 461.385 482.174L541.165 278.964C545.566 267.742 557.465 262.546 567.735 267.355C578.004 272.165 582.76 285.167 578.358 296.388Z" fill="#BA8100"/>
<path d="M297.931 78.7292C294.167 74.1631 287.773 73.8314 283.645 77.889L249.992 110.935C245.834 115.015 245.49 122.013 249.223 126.546C251.227 128.99 253.989 130.217 256.751 130.217C259.159 130.217 261.588 129.277 263.51 127.387L297.162 94.3403C301.321 90.2606 301.665 83.2622 297.931 78.7292Z" fill="#D1D4D1"/>
<path d="M323.752 59.7021C326.16 59.7021 328.589 58.7623 330.511 56.8717L364.163 23.8253C368.322 19.7457 368.666 12.7472 364.932 8.21425C361.179 3.63707 354.774 3.31645 350.646 7.374L316.994 40.4204C312.835 44.5001 312.491 51.4985 316.225 56.0315C318.228 58.4748 320.99 59.7021 323.752 59.7021Z" fill="#D1D4D1"/>
<path d="M216.613 3.55952C212.829 -0.929215 206.434 -1.20562 202.316 2.91827L165.123 40.3981C161.015 44.5441 160.752 51.5315 164.536 56.0203C166.529 58.3862 169.251 59.5803 171.973 59.5803C174.421 59.5803 176.88 58.6074 178.833 56.6505L216.026 19.1706C220.144 15.0357 220.397 8.04826 216.613 3.55952Z" fill="#D1D4D1"/>
<path d="M264.147 49.7406C266.453 49.7406 268.77 48.8893 270.673 47.1314L286.123 32.8581C290.392 28.9221 290.929 21.9458 287.317 17.2802C283.704 12.6145 277.33 12.0175 273.06 15.9755L257.61 30.2488C253.341 34.1848 252.804 41.1611 256.416 45.8268C258.42 48.4139 261.273 49.7406 264.147 49.7406Z" fill="#D1D4D1"/>
<path d="M226.7 58.7844L188.069 94.4842C183.8 98.4202 183.263 105.397 186.875 110.062C188.879 112.649 191.732 113.976 194.616 113.976C196.923 113.976 199.24 113.125 201.142 111.367L239.772 75.6669C244.042 71.731 244.578 64.7547 240.966 60.089C237.354 55.4234 230.969 54.8374 226.7 58.7844Z" fill="#D1D4D1"/>
<path d="M353.69 103.451C350.007 98.8734 343.612 98.4201 339.413 102.444L301.4 138.929C297.201 142.954 296.786 149.941 300.48 154.529C302.473 157.017 305.275 158.288 308.078 158.288C310.446 158.288 312.833 157.382 314.756 155.535L352.769 119.051C356.968 115.026 357.383 108.039 353.69 103.451Z" fill="#D1D4D1"/>
<path d="M368.897 88.8677C370.89 91.3553 373.692 92.6267 376.495 92.6267C378.863 92.6267 381.25 91.7201 383.173 89.8738L394.434 79.061C398.633 75.0366 399.048 68.0492 395.355 63.461C391.672 58.8838 385.277 58.4305 381.078 62.4549L369.817 73.2677C365.618 77.292 365.203 84.2794 368.897 88.8677Z" fill="#D1D4D1"/>
<path d="M405.757 131.101C401.993 126.524 395.599 126.204 391.471 130.261L357.819 163.308C353.66 167.387 353.316 174.386 357.05 178.919C359.053 181.362 361.815 182.589 364.577 182.589C366.985 182.589 369.414 181.65 371.336 179.759L404.988 146.713C409.147 142.633 409.491 135.634 405.757 131.101Z" fill="#D1D4D1"/>
<path d="M354.105 388.021L406.404 259.462L387.049 252.574L336.257 377.463L354.105 388.021Z" fill="#F9C97D"/>
<path d="M317.852 366.595L367.116 245.487L347.761 238.61L300.004 356.036L317.852 366.595Z" fill="#F9C97D"/>
</svg>
