<svg width="767" height="746" viewBox="0 0 435 512" fill="none" xmlns="http://www.w3.org/2000/svg">
<path d="M387.104 123.292C395.694 117.212 408.165 121.342 411.065 131.922L426.634 188.622C428.154 194.162 426.504 200.102 422.324 204.052L379.625 244.472C372.855 250.882 362.604 249.732 357.104 243.322" fill="#DA4A54"/>
<path d="M77.5907 243.322C72.0907 249.732 61.8407 250.882 55.0707 244.472L12.3707 204.052C8.19066 200.102 6.54066 194.162 8.06066 188.622L23.6307 131.922C26.5307 121.342 39.0007 117.212 47.5907 123.292" fill="#C32430"/>
<path d="M254.256 346.895V456.973H180.436V346.878" fill="#F6E266"/>
<path d="M212.575 346.895V456.973H180.436V346.878" fill="#EAB14D"/>
<path d="M217.348 384.19C246.549 384.19 270.222 360.518 270.222 331.316C270.222 302.115 246.549 278.442 217.348 278.442C188.146 278.442 164.474 302.115 164.474 331.316C164.474 360.518 188.146 384.19 217.348 384.19Z" fill="#F6E266"/>
<path d="M233.316 381.731C228.286 383.331 222.916 384.191 217.356 384.191C188.156 384.191 164.476 360.521 164.476 331.311C164.476 302.111 188.156 278.441 217.356 278.441C222.916 278.441 228.286 279.301 233.316 280.901C211.916 287.661 196.406 307.671 196.406 331.311C196.406 354.951 211.916 374.97 233.316 381.731V381.731Z" fill="#EAB14D"/>
<path d="M385.858 93.508H48.8388C28.1288 93.508 11.3408 76.719 11.3408 56.01V45.001C11.3408 24.291 28.1298 7.50299 48.8388 7.50299H385.858C406.568 7.50299 423.356 24.292 423.356 45.001V56.009C423.356 76.719 406.568 93.508 385.858 93.508V93.508Z" fill="#F6E266"/>
<path d="M153.919 93.509H48.8398C28.1298 93.509 11.3398 76.719 11.3398 56.009V45C11.3398 24.29 28.1298 7.5 48.8398 7.5H153.919C133.209 7.5 116.419 24.29 116.419 45V56.01C116.42 76.719 133.21 93.509 153.919 93.509Z" fill="#EAB14D"/>
<path d="M388.435 144.602C388.435 239.091 311.835 315.691 217.346 315.691C216.976 315.691 216.596 315.691 216.226 315.681H216.216C205.216 315.621 194.466 314.511 184.056 312.451C105.496 296.961 46.2568 227.701 46.2568 144.602C46.2568 126.802 48.9768 109.642 54.0168 93.512H380.675C383.355 102.092 385.385 110.962 386.685 120.072C387.835 128.082 388.435 136.272 388.435 144.602V144.602Z" fill="#F6E266"/>
<path d="M184.056 312.451C105.496 296.961 46.2568 227.701 46.2568 144.602C46.2568 126.802 48.9768 109.642 54.0168 93.512H380.675C383.355 102.092 385.385 110.962 386.685 120.072H154.774C141.339 120.072 130.347 130.917 130.337 144.352V144.602C130.337 211.212 156.717 286.501 184.056 312.451V312.451Z" fill="#EAB14D"/>
<path d="M217.338 66.032L216.818 65.943L216.948 65.902L217.338 66.032Z" fill="#EAB14D"/>
<path d="M321.113 434.693H113.583C94.3057 434.693 78.6787 450.32 78.6787 469.597C78.6787 488.874 94.3057 504.501 113.583 504.501H321.114C340.391 504.501 356.018 488.874 356.018 469.597C356.017 450.32 340.39 434.693 321.113 434.693Z" fill="#F6E266"/>
<path d="M163.239 494.276C169.559 500.586 178.279 504.496 187.919 504.496H113.589C103.949 504.496 95.2187 500.586 88.8987 494.276C82.5887 487.956 78.6787 479.237 78.6787 469.596C78.6787 450.316 94.3087 434.686 113.589 434.686H187.919C168.639 434.686 153.019 450.316 153.019 469.596C153.019 479.237 156.919 487.956 163.239 494.276V494.276Z" fill="#EAB14D"/>
<path d="M260.947 176.598L230.697 126.178C224.651 116.1 210.045 116.1 203.998 126.178L173.748 176.598C170.79 181.528 170.79 187.686 173.748 192.616L203.998 243.036C210.044 253.114 224.65 253.114 230.697 243.036L260.947 192.616C263.905 187.686 263.905 181.527 260.947 176.598V176.598Z" fill="#DA4A54"/>
<path d="M217.349 250.595C212.189 250.595 207.029 248.075 203.999 243.035L173.749 192.615C170.799 187.685 170.799 181.535 173.749 176.605L203.999 126.185C207.029 121.145 212.189 118.625 217.349 118.625C215.489 118.625 213.629 121.145 212.539 126.185L201.639 176.605C200.579 181.535 200.579 187.685 201.639 192.615L212.539 243.035C213.629 248.075 215.489 250.595 217.349 250.595V250.595Z" fill="#C32430"/>
<path d="M237.129 122.319C232.921 115.306 225.527 111.119 217.349 111.119C209.17 111.119 201.776 115.306 197.568 122.319L167.318 172.739C162.926 180.059 162.926 189.154 167.318 196.474L197.568 246.894C201.776 253.907 209.17 258.094 217.349 258.094C225.527 258.094 232.922 253.907 237.129 246.894L267.379 196.474C271.771 189.154 271.771 180.059 267.379 172.739L237.129 122.319ZM254.516 188.757L224.266 239.177C222.145 242.712 218.721 243.094 217.348 243.094C215.974 243.094 212.551 242.712 210.43 239.177L180.18 188.757C178.644 186.197 178.644 183.016 180.18 180.456L210.43 130.036C212.551 126.501 215.975 126.119 217.348 126.119C218.721 126.119 222.145 126.501 224.266 130.036L254.516 180.456C256.052 183.016 256.052 186.197 254.516 188.757Z" fill="black"/>
<path d="M433.867 186.636L418.298 129.94C416.283 122.588 411.016 116.9 403.847 114.335C400.374 113.092 396.715 112.716 393.168 113.157C392.429 108.997 391.546 104.865 390.513 100.77C413.146 98.433 430.857 79.252 430.857 56.011V45C430.857 20.187 410.67 0 385.857 0H48.8378C24.0248 0 3.83782 20.187 3.83782 45V56.01C3.83782 79.251 21.5488 98.432 44.1818 100.769C43.1488 104.864 42.2658 108.996 41.5268 113.156C37.9798 112.715 34.3208 113.091 30.8478 114.334C23.6798 116.899 18.4118 122.587 16.3978 129.936L0.827819 186.637C-1.43318 194.878 1.01582 203.639 7.21482 209.498L49.9138 249.917C54.2488 254.021 59.8108 256.242 65.6918 256.242C66.0958 256.242 66.5018 256.231 66.9078 256.21C70.1388 256.043 73.2748 255.195 76.1168 253.774C97.3098 281.127 126.253 302.183 159.629 313.613C157.88 319.302 156.976 325.222 156.976 331.31C156.976 347.051 163.035 361.398 172.936 372.158V427.189H113.578C90.1988 427.189 71.1778 446.214 71.1778 469.599C71.1778 480.914 75.5858 491.56 83.5988 499.586C91.6158 507.592 102.263 512 113.578 512H321.118C344.497 512 363.518 492.979 363.518 469.6C363.518 458.272 359.108 447.624 351.101 439.617C347.56 436.076 343.463 433.213 338.924 431.107C335.167 429.365 330.708 430.997 328.964 434.754C327.221 438.511 328.854 442.97 332.611 444.713C335.549 446.076 338.201 447.93 340.494 450.223C345.668 455.397 348.517 462.279 348.517 469.6C348.517 484.708 336.225 497 321.117 497H113.578C106.265 497 99.3818 494.149 94.2048 488.981C89.0278 483.796 86.1778 476.913 86.1778 469.6C86.1778 454.486 98.4698 442.19 113.578 442.19H306.118C310.26 442.19 313.618 438.832 313.618 434.69C313.618 430.548 310.26 427.19 306.118 427.19H261.756V372.167C271.663 361.407 277.726 347.056 277.726 331.311C277.726 325.224 276.822 319.303 275.072 313.612C308.446 302.182 337.387 281.126 358.578 253.775C361.42 255.196 364.556 256.044 367.787 256.211C368.194 256.232 368.599 256.243 369.003 256.243C374.883 256.243 380.446 254.022 384.78 249.918L427.476 209.502C433.68 203.64 436.129 194.878 433.867 186.636V186.636ZM66.1318 241.231C64.5868 241.315 62.3068 240.994 60.2268 239.024L17.5218 198.6C15.3558 196.553 14.5018 193.49 15.2928 190.607L30.8638 133.904C31.5678 131.336 33.4038 129.35 35.9028 128.456C37.1018 128.026 38.3308 127.888 39.5228 128.011C39.0158 133.509 38.7578 139.042 38.7578 144.599C38.7578 180.126 49.1888 213.261 67.1438 241.108C66.8108 241.168 66.4738 241.214 66.1318 241.231ZM187.937 427.19V384.014C196.646 388.895 206.674 391.691 217.347 391.691C228.02 391.691 238.047 388.896 246.757 384.017V427.19H187.937ZM262.726 331.311C262.726 356.333 242.369 376.691 217.346 376.691C192.329 376.691 171.976 356.334 171.976 331.311C171.976 326.678 172.67 322.178 174.013 317.862C187.893 321.335 202.407 323.19 217.348 323.19C232.291 323.19 246.807 321.335 260.689 317.861C262.032 322.178 262.726 326.678 262.726 331.311V331.311ZM217.348 308.19C127.144 308.19 53.7578 234.804 53.7578 144.6C53.7578 129.784 55.7368 115.148 59.6348 101.01H90.2478C94.3898 101.01 97.7478 97.652 97.7478 93.51C97.7478 89.368 94.3898 86.01 90.2478 86.01H48.8378C32.2958 86.01 18.8378 72.552 18.8378 56.01V45C18.8378 28.458 32.2958 15 48.8378 15H385.858C402.4 15 415.858 28.458 415.858 45V56.01C415.858 72.552 402.4 86.01 385.858 86.01H120.248C116.106 86.01 112.748 89.368 112.748 93.51C112.748 97.652 116.106 101.01 120.248 101.01H375.061C378.959 115.148 380.938 129.784 380.938 144.6C380.938 234.804 307.552 308.19 217.348 308.19V308.19ZM417.169 198.605L374.468 239.025C372.389 240.993 370.113 241.314 368.564 241.231C368.222 241.213 367.886 241.168 367.552 241.109C385.507 213.261 395.938 180.127 395.938 144.6C395.938 139.044 395.68 133.51 395.173 128.013C396.364 127.889 397.594 128.028 398.793 128.457C401.292 129.351 403.128 131.337 403.833 133.908L419.403 190.606C420.193 193.491 419.339 196.554 417.169 198.605V198.605Z" fill="black"/>
</svg>
