<svg width="767" height="746" viewBox="0 0 474 512" fill="none" xmlns="http://www.w3.org/2000/svg">
<path d="M70.9747 11.0983C69.611 11.5529 68.2474 13.3711 67.3383 14.2802C66.4292 15.1893 64.8785 16.7365 63.2474 18.8256C62.0606 20.3457 59.4536 22.3281 58.7019 23.3711C58.1076 24.1956 57.392 25.6769 55.9746 27.9165C55.0983 29.3014 54.3867 31.0432 54.1565 32.462C53.938 33.808 53.9354 35.5637 53.7019 36.5529C53.3886 37.8801 53.7019 38.8256 53.7019 39.2802C53.7019 40.1893 53.7019 40.6438 53.7019 41.5529C53.7019 42.0075 53.7019 42.462 53.7019 42.9165C53.7019 43.3711 54.2238 43.9294 53.7019 45.1893C53.4559 45.7832 53.2474 46.5529 53.2474 47.0075C53.2474 47.9166 53.2474 49.2802 53.2474 49.7347C53.2474 50.1893 53.2474 50.6438 53.2474 51.5529C53.2474 52.462 53.0385 53.85 53.2474 54.7347C53.4809 55.7239 53.7019 56.5529 53.7019 57.462C53.7019 58.8257 53.7019 59.7347 53.7019 61.0984C53.7019 62.0075 53.7019 63.8257 53.7019 65.1893C53.7019 66.5529 53.6291 67.9224 53.7019 68.3711C53.9322 69.79 53.9608 70.7043 54.611 72.462C54.9636 73.4153 55.8349 74.3648 56.4292 75.1893C57.5568 76.7538 58.108 77.6706 58.7019 77.9166C59.1219 78.0905 59.5946 78.4238 60.9746 78.8257C62.774 79.3496 63.4232 80.6064 64.611 81.0984C65.031 81.2723 66.3369 81.6695 66.8837 82.0075C68.1065 82.7632 69.1123 83.473 70.0656 83.8257C71.8233 84.4759 73.2474 84.2802 74.1565 84.7348C75.9747 85.6438 76.2899 85.8524 76.8837 86.0984C77.3037 86.2723 77.7928 86.5529 78.7019 86.5529C79.1565 86.5529 80.4278 87.1241 80.9747 87.462C82.1974 88.2177 83.7019 88.3711 85.5201 88.8257C87.3383 89.2802 89.5309 90.8649 90.5201 91.0984C90.9625 91.2028 91.4414 91.4485 91.8838 91.5529C92.873 91.7865 94.0764 92.2285 95.0656 92.462C96.3927 92.7753 96.8838 92.462 97.3383 92.462C98.702 92.462 99.1565 92.462 100.066 92.462C100.975 92.462 101.884 92.462 102.793 92.462C103.702 92.462 104.611 92.462 105.066 92.462C105.975 92.462 107.258 92.241 108.247 92.0075C109.575 91.6942 110.465 91.7832 111.884 91.5529C112.781 91.4073 114.157 91.5529 116.429 91.5529C119.157 91.5529 122.338 91.5529 125.52 91.5529C127.338 91.5529 129.157 91.5529 131.429 91.5529C133.247 91.5529 136.891 91.327 140.52 91.5529C144.178 91.7807 147.368 92.098 149.611 92.462C151.03 92.6923 152.793 92.9166 153.702 92.9166C154.611 92.9166 155.52 92.9166 157.338 92.9166C158.702 92.9166 160.533 93.1024 163.247 93.3711C165.554 93.5995 167.793 93.8257 170.975 93.8257C173.702 93.8257 177.271 94.278 181.884 94.7348C186.859 95.2274 191.886 95.1668 196.884 95.6439C201.431 96.0779 204.157 96.0984 207.338 96.0984C210.066 96.0984 212.793 96.0984 215.52 96.0984C219.157 96.0984 222.801 96.324 225.975 96.0984C229.181 95.8706 232.338 95.6439 236.429 95.1893C240.52 94.7348 244.536 94.283 248.702 93.8257C251.865 93.4785 255.52 93.3711 259.611 93.3711C264.157 93.3711 269.617 93.1843 275.52 92.9166C280.536 92.6891 284.617 92.0636 289.157 91.5529C292.798 91.1433 296.89 91.2961 300.066 91.0984C303.723 90.8707 305.975 90.6439 309.157 90.6439C312.793 90.6439 316.86 90.8706 320.066 91.0984C324.146 91.3884 327.793 91.5529 331.429 91.5529C335.52 91.5529 339.592 91.7799 343.702 92.0075C347.333 92.2086 350.975 92.0075 354.611 92.0075C358.248 92.0075 361.884 92.0075 366.429 92.0075C370.066 92.0075 374.164 92.2334 377.793 92.0075C381.451 91.7798 384.583 91.3264 387.339 91.0984C390.509 90.836 392.339 91.0984 395.066 91.0984C397.339 91.0984 399.157 90.6439 400.975 90.6439C402.793 90.6439 404.569 90.4183 406.429 90.1893C407.332 90.0782 409.157 89.2802 410.52 89.2802C413.248 89.2802 415.024 89.0547 416.884 88.8257C418.237 88.659 419.611 88.8257 420.066 88.8257C421.884 88.8257 422.339 88.8257 423.702 88.8257C424.611 88.8257 426.429 88.8257 428.248 88.8257C430.066 88.8257 431.429 88.8257 432.793 88.8257C433.702 88.8257 434.986 88.6046 435.975 88.3711C436.86 88.1623 437.738 88.1468 439.157 87.9166C439.605 87.8438 440.15 87.6018 440.975 87.0075C441.496 86.6316 441.777 85.7512 442.793 84.7348C443.809 83.7184 445.066 83.8257 445.975 82.9166C446.884 82.0075 448.118 81.0022 449.157 79.7348C449.564 79.2376 450.39 78.2749 451.429 77.0075C452.652 75.5161 453.118 74.184 454.157 72.9166C454.972 71.9223 455.52 70.1893 455.975 69.2802C456.429 68.3711 456.847 67.7407 457.339 66.5529C457.686 65.713 457.234 65.1771 457.339 64.7347C457.572 63.7455 457.793 62.9166 457.793 61.0984C457.793 60.1893 458.014 59.3603 458.248 58.3711C458.457 57.4863 458.248 56.0984 458.248 55.1893C458.248 54.2802 458.102 52.4503 458.248 51.5529C458.478 50.1341 458.702 49.2802 458.702 47.462C458.702 46.5529 459.157 45.6438 459.157 43.8256C459.157 42.9165 459.157 41.5529 459.157 40.1893C459.157 37.9165 458.702 36.5529 458.702 34.7347C458.702 33.3711 458.47 31.9938 458.248 30.1893C458.019 28.3292 457.207 27.0673 456.429 25.1893C455.879 23.8613 455.616 22.4263 455.066 21.0983C454.677 20.1593 454.296 19.5262 453.702 19.2802C453.282 19.1062 452.757 18.9211 451.429 18.3711C450.49 17.9821 449.665 17.3755 448.248 16.5529C446.489 15.5326 444.662 15.018 441.884 14.2802C439.644 13.6853 438.236 13.4755 437.793 13.3711C436.804 13.1376 436.006 11.8994 434.611 11.5529C431.928 10.8864 430.497 10.935 428.702 10.6438C427.283 10.4135 426.884 10.1892 426.429 10.1892C425.975 10.1892 424.611 10.1892 423.702 10.1892C422.793 10.1892 421.884 10.1892 421.429 10.1892C420.066 10.1892 419.611 10.1892 418.248 10.1892C415.066 10.1892 412.339 10.1892 408.702 10.1892C405.975 10.1892 403.744 9.96369 401.884 9.7347C399.628 9.45701 397.339 9.7347 394.611 9.7347C391.429 9.7347 389.157 9.7347 386.884 9.7347C385.52 9.7347 383.744 9.50915 381.884 9.28016C380.079 9.058 375.999 8.59891 372.793 8.37107C370.979 8.24218 305.52 8.37107 303.702 8.37107C301.884 8.37107 300.066 8.37107 298.702 8.37107C296.884 8.37107 295.094 8.59756 292.338 8.82561C289.62 9.05056 286.918 9.05177 284.611 9.28016C282.802 9.45932 281.412 9.51627 280.066 9.7347C278.647 9.96495 276.867 9.91156 274.611 10.1892C272.751 10.4182 271.017 10.8694 269.157 11.0983C267.352 11.3205 264.608 11.0017 263.248 11.0983C260.041 11.3262 257.793 11.5529 255.066 11.5529C252.793 11.5529 250.52 11.5529 247.338 11.5529C244.611 11.5529 240.513 11.8043 235.975 11.5529C231.865 11.3253 228.247 11.0983 225.52 11.0983C221.429 11.0983 216.884 11.0983 210.975 11.0983C205.52 11.0983 200.975 10.6438 197.338 10.6438C194.611 10.6438 191.884 10.1892 189.157 10.1892C185.975 10.1892 182.793 9.7347 180.066 9.7347C177.338 9.7347 174.157 9.7347 170.975 9.7347C168.247 9.7347 165.516 9.40905 163.702 9.28016C160.496 9.05231 156.429 8.37107 150.52 8.37107C100.975 8.37107 96.4244 8.77564 91.4292 9.28016C87.334 9.69378 84.6448 9.96087 82.3383 10.1892C80.9813 10.3236 80.5201 10.1892 80.0656 10.1892C79.1565 10.1892 78.8413 10.3978 78.2474 10.6438C77.8274 10.8177 77.3383 10.6438 76.8837 10.6438C75.9747 10.6438 75.5201 10.6438 74.611 10.6438C73.7019 10.6438 72.3383 11.0983 71.4292 11.0983H70.9747H70.0656Z" fill="white"/>
<path d="M205.657 310.907C205.196 310.907 204.772 311.082 204.273 312.267C203.92 313.105 203.811 314.535 203.811 315.895C203.811 317.256 203.811 318.616 203.35 319.977C202.889 321.337 202.889 323.151 202.889 324.512C202.889 324.965 202.508 325.463 201.966 326.326C201.481 327.097 201.966 328.14 201.966 329.5C201.966 330.407 202.419 331.183 202.889 333.581C203.063 334.472 203.417 335.819 203.811 336.756C204.37 338.081 204.558 338.604 204.734 339.023C204.984 339.616 205.48 340.418 205.657 340.837C205.907 341.43 205.977 342.736 206.58 343.558C207.343 344.599 207.752 345.396 207.964 346.279C208.201 347.266 208.319 347.652 208.425 348.093C208.662 349.08 209.576 350.305 209.81 351.721C209.957 352.616 210.165 352.64 210.271 353.081C210.508 354.068 210.732 354.895 210.732 355.349C210.732 356.256 210.52 356.734 210.732 357.616C210.969 358.603 211.194 358.977 211.194 359.884C211.194 360.791 211.635 361.493 212.117 363.058C212.785 365.228 212.02 366.722 212.578 368.047C212.973 368.983 213.264 370.234 213.501 371.221C213.607 371.662 213.324 372.162 213.501 372.581C213.751 373.174 213.609 373.557 213.962 374.395C214.212 374.988 214.651 375.247 214.885 376.663C215.033 377.558 214.993 378.092 215.346 378.93C215.596 379.523 215.808 380.291 215.808 381.198C215.808 382.105 216.731 382.558 216.731 383.465C216.731 383.919 216.731 385.279 216.731 386.186C216.731 388.453 216.958 389.305 217.192 390.721C217.488 392.511 217.422 393.862 217.653 396.163C217.926 398.87 217.653 400.698 217.653 402.512C217.653 403.419 217.653 404.326 217.653 404.779C217.653 405.233 217.653 406.593 217.653 407.5C217.653 407.953 217.429 408.781 217.192 409.767C216.768 411.533 217.132 413 216.731 414.302C216.249 415.867 215.58 416.515 215.346 417.93C215.051 419.721 214.885 421.105 214.885 422.465C214.885 423.372 215.211 424.865 214.885 425.186C214.559 425.507 214.565 425.724 213.962 426.547C213.581 427.067 213.393 427.976 213.039 428.814C212.79 429.406 212.443 429.854 212.117 430.174C211.464 430.816 211.262 430.706 210.732 431.081C209.895 431.674 209.268 431.922 208.887 432.442C208.284 433.264 207.559 434.026 206.118 434.256C204.297 434.546 202.869 434.64 201.043 435.163C199.642 435.564 197.359 436.106 195.045 436.523C192.284 437.021 190.42 437.717 189.046 437.884C187.158 438.112 186.278 438.337 185.355 438.337C183.51 438.337 182.58 438.226 181.664 438.337C179.776 438.566 177.05 438.791 174.282 438.791C171.975 438.791 170.59 438.791 169.668 438.791C168.745 438.791 167.353 438.978 165.054 438.791C162.256 438.563 159.517 438.337 157.671 438.337C155.825 438.337 154.959 438.113 153.518 437.884C151.241 437.521 149.366 436.977 147.52 436.977C145.213 436.977 143.829 436.977 141.983 436.977C140.138 436.977 139.864 437.209 138.754 437.884C137.512 438.638 136.976 438.416 136.447 438.791C135.61 439.384 134.601 439.698 134.14 440.151C133.678 440.605 132.294 441.058 130.91 442.419C129.526 443.779 128.141 444.686 127.219 446.047C126.296 447.407 125.834 448.767 125.373 449.674C124.912 450.581 124.45 451.488 124.45 452.395C124.45 452.849 124.627 453.337 124.45 453.756C123.951 454.941 123.527 456.023 123.527 456.93C123.527 457.837 123.88 458.36 123.527 459.198C123.278 459.79 123.278 461.036 123.066 461.919C122.829 462.906 122.604 463.733 122.143 465.093C121.682 466.454 121.615 467.331 121.22 468.267C120.662 469.592 120.073 470.455 119.836 471.442C119.73 471.883 119.231 472.839 118.913 474.163C118.676 475.15 118.096 475.989 117.99 476.43C117.753 477.417 117.301 478.643 117.068 480.058C116.92 480.953 117.068 482.326 117.068 484.14C117.068 485.5 116.915 487.774 117.068 489.581C117.299 492.33 118.758 493.871 119.836 495.477C121.204 497.516 121.682 499.105 122.604 500.465C123.527 501.826 124.45 502.279 125.373 503.186C126.296 504.093 128.141 504.547 130.91 504.547C132.294 504.547 133.678 504.093 134.601 503.64C135.524 503.186 136.945 503.045 138.292 502.733C139.296 502.5 139.535 502.071 140.138 501.826C140.564 501.652 141.061 501.826 141.983 501.826C142.906 501.826 143.368 501.826 143.829 501.826C144.29 501.826 145.231 501.608 146.597 501.826C148.038 502.055 149.313 502.403 150.289 502.733C152.514 503.483 154.903 503.64 157.21 503.64C158.594 503.64 159.978 503.64 161.824 503.64C164.131 503.64 167.822 503.64 169.668 503.64C171.975 503.64 173.359 503.64 175.666 503.64C178.434 503.64 182.597 503.26 186.278 502.733C189.055 502.335 190.836 502.055 192.276 501.826C194.554 501.462 195.933 502.505 198.275 502.733C199.652 502.867 201.514 502.475 205.196 502.733C208.45 502.96 211.194 503.64 214.424 503.64C217.192 503.64 219.045 503.447 221.806 503.64C225.06 503.867 229.66 503.968 236.11 504.547C240.27 504.92 244.415 505 247.645 505C251.336 505 256.873 504.547 263.332 504.547C269.331 504.547 274.414 504.157 278.559 503.64C281.795 503.236 284.095 502.733 286.864 502.733C289.171 502.733 291.503 502.941 292.401 502.733C293.405 502.5 295.126 502.054 297.015 501.826C300.22 501.438 303.112 502.225 305.781 501.372C307.744 500.745 310.395 500.465 313.625 500.465C316.394 500.465 319.623 500.465 321.008 500.465C321.93 500.465 323.733 499.787 325.622 499.558C327.453 499.337 329.313 499.558 330.697 499.558C331.158 499.558 332.543 499.558 333.465 499.558C335.772 499.558 338.079 500.012 340.387 500.012C342.232 500.012 343.155 500.012 344.539 500.012C346.385 500.012 348.692 500.465 351.922 500.465C353.767 500.465 356.086 500.61 356.997 500.465C358.437 500.235 360.195 499.904 361.611 499.558C364.335 498.893 365.747 498.145 367.148 497.744C368.974 497.221 370.17 496.404 371.762 495.93C373.528 495.405 374.543 495.581 374.992 495.477C375.996 495.244 376.837 495.023 378.683 495.023C379.606 495.023 379.891 494.989 380.067 494.57C380.317 493.977 381.358 493.546 381.913 493.209C383.154 492.455 383.758 491.395 384.22 490.942C385.143 490.035 386.273 488.924 387.45 487.767C388.626 486.611 388.834 485.5 389.295 484.593C389.757 483.686 390.185 482.955 391.141 481.872C391.817 481.106 392.525 480.512 392.986 479.151C393.448 477.791 394.137 476.939 394.371 475.523C394.592 474.18 394.595 472.882 394.832 471.895C395.15 470.571 394.938 470.069 394.832 469.628C394.595 468.641 394.547 468.233 394.371 467.814C394.121 467.221 393.448 466.907 393.448 466.454C393.448 466 393.22 465.602 392.986 464.186C392.912 463.738 393.163 463.245 392.986 462.826C392.737 462.233 392.525 461.919 392.525 461.465C392.525 461.012 392.064 460.558 392.064 459.651C392.064 459.198 391.317 459.163 391.141 458.744C390.891 458.152 391.006 457.704 390.679 457.384C390.353 457.063 390.006 457.069 389.757 456.477C389.58 456.058 389.621 455.437 389.295 455.116C388.969 454.796 389.16 454.076 388.834 453.756C388.508 453.435 388.699 453.169 388.372 452.849C388.046 452.528 388.088 452.361 387.911 451.942C387.661 451.349 386.853 450.449 386.527 450.128C386.201 449.807 385.93 449.995 385.604 449.674C385.278 449.354 385.469 448.635 385.143 448.314C384.816 447.993 384.546 448.181 384.22 447.86C383.893 447.54 383.623 447.274 383.297 446.953C382.644 446.312 382.455 446.002 381.913 445.14C381.67 444.754 381.628 444.652 381.451 444.233C381.202 443.64 380.855 443.193 380.529 442.872C380.202 442.551 380.72 442.153 380.067 441.512C379.741 441.191 379.606 441.058 379.144 441.058C378.683 441.058 378.221 441.058 377.299 441.058C376.837 441.058 376.376 441.058 376.376 440.605C376.376 440.151 376.376 439.698 376.376 439.244C376.376 438.791 376.702 438.204 376.376 437.884C376.05 437.563 375.915 436.977 375.915 436.523C375.915 436.07 375.915 435.616 375.915 435.163C375.915 434.709 375.879 434.429 375.453 434.256C374.85 434.01 374.947 432.975 374.069 432.442C373.676 432.203 373.337 432.708 372.685 433.349C372.358 433.669 372.55 433.935 372.223 434.256C371.897 434.576 371.627 434.389 371.3 434.709C370.974 435.03 371.165 435.296 370.839 435.616C370.513 435.937 370.243 435.749 369.916 436.07C369.59 436.39 369.781 436.656 369.455 436.977C369.129 437.297 368.993 437.884 368.993 438.337C368.993 438.791 368.993 439.244 368.993 439.698C368.993 440.151 369.32 440.737 368.993 441.058C368.341 441.699 368.071 441.512 367.609 441.512C367.148 441.512 366.686 441.512 366.225 441.512C365.764 441.512 365.302 441.512 364.841 441.512C364.379 441.512 363.457 441.512 362.995 441.512C362.534 441.512 362.072 441.512 361.611 441.512C361.15 441.512 360.688 441.512 360.227 441.512C359.765 441.512 358.843 441.512 358.381 441.512C357.92 441.512 357.458 441.512 356.997 441.512C356.536 441.512 356.074 441.512 355.613 441.512C355.151 441.512 355.151 441.058 354.229 441.058C353.767 441.058 353.306 441.058 352.844 441.058C352.383 441.058 352.248 440.925 351.922 440.605C351.595 440.284 350.999 440.605 350.537 440.605C349.615 440.605 349.153 440.605 348.692 440.605C348.23 440.605 347.769 440.605 347.308 440.605C346.846 440.605 346.385 440.605 345.923 440.605C345.001 440.605 344.539 440.605 344.078 440.605C343.616 440.605 343.155 440.605 342.694 440.605C342.232 440.605 341.771 440.605 341.309 440.605C340.387 440.605 339.925 440.605 339.464 440.605C339.002 440.605 338.867 440.472 338.541 440.151C338.215 439.831 338.256 439.663 338.079 439.244C337.83 438.652 337.483 438.658 337.157 438.337C336.83 438.017 334.899 437.663 331.158 436.977C327.502 436.305 323.776 436.523 321.008 436.523C319.623 436.523 319.162 436.07 318.701 436.07C318.239 436.07 316.394 436.07 315.471 436.07C314.548 436.07 314.087 435.616 313.625 435.616C312.241 435.616 311.312 435.312 309.473 435.163C306.675 434.935 305.271 435.126 303.474 434.709C302.47 434.476 302.055 434.429 301.629 434.256C301.026 434.01 299.839 433.579 298.399 433.349C297.943 433.276 297.341 432.763 297.015 432.442C296.688 432.121 296.553 431.988 296.553 431.535C296.553 431.081 296.342 430.767 296.092 430.174C295.915 429.755 296.092 429.267 296.092 428.814C296.092 427.453 296.092 426.547 296.092 426.093C296.092 425.186 296.092 424.733 296.092 423.372C296.092 422.465 296.092 422.012 296.092 421.558C296.092 421.105 295.63 420.651 295.63 420.198C295.63 419.744 295.169 418.837 295.169 418.384C295.169 417.93 295.169 417.477 295.169 417.023C295.169 416.57 295.169 416.116 295.169 415.663C295.169 415.209 295.169 413.849 295.169 413.395C295.169 412.942 294.746 412.766 294.246 411.581C293.893 410.743 294.022 409.394 293.785 408.407C293.573 407.524 293.859 407.041 293.785 406.593C293.551 405.177 293.535 404.755 293.323 403.872C293.086 402.885 292.719 402.022 292.401 400.698C292.164 399.711 291.253 398.51 291.016 397.523C290.698 396.199 290.805 395.395 290.555 394.802C290.202 393.964 289.78 393.43 289.632 392.535C289.399 391.119 289.171 390.267 289.171 389.814C289.171 389.36 289.171 388.453 289.171 386.64C289.171 385.279 289.171 383.465 289.171 381.651C289.171 380.291 288.942 378.972 288.709 377.116C288.597 376.216 288.485 375.382 288.248 374.395C287.93 373.071 288.248 372.581 288.248 371.674C288.248 371.221 288.1 370.756 288.248 369.86C288.482 368.445 288.949 367.9 289.632 367.14C290.733 365.914 291.194 365.157 292.401 363.512C293.164 362.471 294.454 361.947 295.63 360.791C296.807 359.635 296.873 358.439 297.476 357.616C297.858 357.096 298.638 356.456 299.783 354.895C300.386 354.073 300.706 353.081 301.167 351.721C301.629 350.36 301.732 349.044 302.09 348.093C302.75 346.339 302.801 345.348 303.013 344.465C303.25 343.478 304.249 341.732 304.397 340.837C304.631 339.422 305.002 338.533 305.32 337.209C305.557 336.222 306.009 335.45 306.243 334.035C306.464 332.692 306.758 331.33 307.166 329.954C307.697 328.158 307.627 327.233 307.627 325.872C307.627 324.965 307.627 323.605 307.627 322.698C307.627 321.791 307.839 320.859 307.627 319.977C307.39 318.99 307.342 318.582 307.166 318.163C306.916 317.57 306.704 317.256 306.243 316.802C305.781 316.349 305.588 316.159 304.859 315.442C304.129 314.725 303.013 314.081 301.629 313.174C300.244 312.267 298.431 311.706 297.015 311.36C294.291 310.696 292.401 310 291.016 310C289.171 310 287.787 310 286.864 310C284.557 310 282.25 310 279.481 310C277.174 310 274.867 310 273.022 310C270.715 310 268.408 310 266.101 310C264.255 310 262.871 310 260.564 310C259.641 310 258.257 310 255.95 310C254.104 310 251.797 310 249.952 310C248.106 310 247.183 310 245.799 310C244.415 310 242.108 310 238.878 310C236.571 310 234.264 310 233.341 310C232.418 310 231.496 310 230.573 310C228.727 310 226.42 310.907 224.113 310.907C222.729 310.907 221.806 310.907 221.345 310.907C219.96 310.907 219.499 310.907 218.576 310.907C218.115 310.907 217.192 310.907 215.346 310.907C214.885 310.907 214.424 310.907 213.962 310.907C213.501 310.907 213.039 310.907 212.578 310.907C212.117 310.907 211.194 310.907 210.732 310.907C210.271 310.907 209.81 310.907 209.348 310.907C208.887 310.907 208.425 310.907 207.964 310.907C207.503 310.907 206.58 310.907 206.118 310.907V311.36H205.657" fill="white"/>
<path d="M433.046 119.836C433.5 120.29 434.445 120.676 436.227 121.654C438.551 122.929 439.784 123.693 440.773 123.927C441.658 124.136 442.215 123.86 442.591 124.381C443.185 125.206 444.071 125.653 444.409 126.199C445.165 127.422 446.088 128.557 446.682 129.381C447.058 129.903 447.417 130.325 447.591 130.745C447.837 131.339 448.254 131.969 448.5 132.563C448.674 132.983 448.781 133.507 448.955 133.927C449.447 135.114 451.097 136.75 452.137 138.018C452.952 139.012 453.254 139.242 453.5 139.836C453.674 140.256 453.5 141.654 453.5 142.109C453.5 142.563 453.955 143.018 453.955 143.927C453.955 144.836 454.409 146.654 455.773 148.018C456.227 148.472 456.227 149.381 456.227 150.29C456.227 151.199 456.515 152.119 456.682 153.472C456.911 155.332 457.278 156.236 457.591 157.563C457.825 158.552 458.267 160.21 458.5 161.199C458.709 162.084 458.5 162.563 458.5 163.927C458.5 164.836 458.56 165.803 458.955 167.109C459.43 168.677 459.864 168.927 459.864 169.381C459.864 169.836 459.864 170.745 459.864 171.199C459.864 172.109 459.759 173.484 459.864 173.927C460.097 174.916 459.797 176.303 460.318 177.563C460.564 178.157 460.773 178.927 460.773 179.836C460.773 180.29 460.994 182.028 461.227 183.018C461.436 183.902 461.436 184.242 461.682 184.836C462.03 185.676 461.334 186.723 461.682 187.563C461.928 188.157 462.032 188.484 462.137 188.927C462.37 189.916 462.417 191.234 462.591 191.654C462.837 192.248 463.046 192.563 463.046 193.018C463.046 194.381 463.046 195.745 463.046 196.654C463.046 197.563 463.046 198.018 463.046 198.472C463.046 198.927 463.394 199.45 463.046 200.29C462.8 200.884 461.928 201.515 461.682 202.109C461.508 202.529 460.694 203.405 460.318 203.927C459.724 204.751 458.416 205.151 457.591 205.745C456.548 206.497 456.143 207.423 455.318 208.018C453.754 209.145 453.046 210.29 452.137 211.199C451.682 211.654 451.294 212.187 450.773 212.563C449.948 213.157 449.476 214.005 448.955 214.381C448.13 214.976 447.73 215.499 447.137 215.745C446.297 216.093 444.439 216.265 443.5 216.654C442.172 217.204 440.815 218.519 440.318 218.927C439.051 219.966 437.986 220.179 436.227 221.199C434.81 222.022 434.139 223.705 433.046 224.381C431.823 225.137 431.133 225.205 430.318 226.199C429.279 227.467 428.554 228.559 427.136 229.381C426.257 229.891 426.227 230.29 425.773 230.745C425.318 231.2 425.318 232.109 424.864 232.563C424.409 233.018 423.734 233.392 423.5 234.381C423.396 234.824 422.591 234.836 422.591 235.29C422.591 235.745 422.382 236.969 422.136 237.563C421.963 237.983 421.682 238.472 421.682 238.927C421.682 239.381 421.227 239.381 420.773 239.836C420.318 240.29 419.864 241.654 419.409 242.109C418.955 242.563 418.185 243.226 417.591 243.472C417.171 243.646 416.749 244.005 416.227 244.381C415.403 244.976 415.003 245.953 414.409 246.199C413.569 246.547 413.011 246.48 412.591 246.654C411.997 246.9 411.821 247.317 411.227 247.563C410.807 247.737 409.864 247.563 408.955 247.563C408.046 247.563 407.112 247.772 406.227 247.563C405.238 247.33 404.375 247.283 403.955 247.109C403.361 246.863 403.22 246.619 403.046 246.199C402.8 245.606 402.37 244.916 402.136 243.927C401.928 243.042 401.915 242.189 401.682 241.199C401.473 240.315 401.682 239.836 401.682 239.381C401.682 238.927 401.963 238.438 402.136 238.018C402.383 237.424 402.698 236.585 403.046 235.745C403.292 235.151 403.888 234.757 404.409 234.381C405.234 233.787 405.318 233.472 405.773 233.018C406.227 232.563 406.088 232.024 406.682 231.199C407.058 230.678 407.591 229.836 408.046 228.927C408.5 228.018 408.709 226.793 408.955 226.199C409.476 224.94 409.086 223.987 409.864 222.109C410.414 220.781 410.543 219.891 410.773 218.472C410.991 217.126 411.019 216.175 411.227 215.29C411.461 214.301 411.586 213.891 412.136 212.563C412.525 211.624 412.698 211.13 413.046 210.29C413.292 209.696 414.269 208.388 414.864 207.563C415.616 206.52 416.359 205.805 417.136 203.927C417.687 202.599 418.177 201.259 418.955 199.381C419.505 198.053 419.753 196.647 419.864 195.745C420.093 193.885 420.318 193.018 420.318 192.109C420.318 191.654 420.539 190.37 420.773 189.381C420.982 188.496 420.773 188.018 420.773 186.654C420.773 185.745 420.994 184.916 421.227 183.927C421.436 183.042 421.536 181.188 421.682 180.29C421.912 178.872 422.363 177.597 422.591 175.29C422.77 173.481 423.5 171.199 423.5 169.381C423.5 167.109 423.788 165.735 423.955 164.381C424.184 162.521 424.409 161.199 424.409 159.381C424.409 157.563 424.409 156.199 424.409 154.836C424.409 153.018 424.409 151.654 424.409 150.29C424.409 148.472 424.409 147.563 424.409 146.199C424.409 144.836 424.409 143.472 424.409 142.109C424.409 140.29 424.864 138.927 424.864 138.018C424.864 136.654 425.318 134.836 425.318 133.472C425.318 132.108 425.773 130.29 425.773 129.381C425.773 128.472 426.227 128.018 426.227 127.563C426.227 126.654 426.334 125.676 426.682 124.836C426.928 124.242 427.511 123.882 428.046 123.018C428.524 122.244 428.721 121.734 428.955 120.745C429.268 119.418 429.305 118.915 429.409 118.472C429.643 117.483 430.386 117.324 430.773 117.563C431.637 118.097 431.682 118.927 431.682 119.381L432.591 119.836H433.046H433.5Z" fill="white"/>
<path d="M71.193 123.537C70.6405 124.114 70.387 125.09 70.088 125.843C69.4537 127.441 69.6516 128.771 68.9831 130.456C68.5103 131.647 68.0895 133.382 67.8781 133.915C67.5791 134.668 66.432 135.689 66.2206 136.221C65.9216 136.975 65.4817 137.553 64.5632 139.104C64.1524 139.798 63.2047 140.657 62.9057 141.41C62.6943 141.943 62.6743 143.381 61.8007 144.293C60.9272 145.205 60.8656 145.553 60.1433 146.599C59.6864 147.261 59.2497 147.796 59.0383 148.329C58.7393 149.082 58.6127 150.074 58.4858 150.635C58.202 151.89 57.3168 152.921 56.8283 154.671C56.1914 156.954 55.1068 158.686 54.6184 160.437C53.9815 162.719 53.6484 163.905 53.5134 165.049C53.2351 167.409 52.7074 168.332 52.4084 169.085C51.9856 170.15 51.8559 171.391 51.8559 171.968C51.8559 173.121 51.8559 174.274 51.3035 175.427C50.751 176.58 50.6458 177.665 49.646 179.463C49.0259 180.578 48.84 181.593 48.541 182.346C48.1182 183.411 47.9885 185.229 47.9885 185.805C47.9885 186.958 47.9885 188.688 47.9885 190.418C47.9885 191.571 47.9885 192.724 47.9885 193.301C47.9885 194.454 48.541 195.03 48.541 196.183C48.541 196.76 48.8821 197.38 49.0935 197.913C49.3925 198.666 49.646 199.066 49.646 199.643C49.646 200.219 50.1737 200.536 50.751 202.526C50.9111 203.077 50.8806 204.343 51.3035 205.408C51.6025 206.162 52.1094 207.538 52.4084 208.291C52.8313 209.356 53.2144 209.267 53.5134 210.021C53.7248 210.553 54.0659 211.174 54.6184 212.327C55.1709 213.48 56.5293 214.456 56.8283 215.21C57.0398 215.742 58.6571 216.557 60.1433 217.516C62.1372 218.802 63.4127 220.045 64.0107 221.552C64.2221 222.085 64.5632 222.128 65.1156 222.705C66.2206 223.858 66.2206 225.011 67.3256 225.588C68.4306 226.164 68.9831 226.741 70.088 227.894C70.6405 228.471 70.685 229.328 71.7455 230.777C72.9546 232.429 74.9284 233.323 76.7179 234.236C78.2873 235.037 79.275 237.364 81.1378 238.849C84.6776 241.67 88.257 244.225 92.74 245.767C96.5599 247.082 98.3474 248.377 98.8174 248.074C99.8683 247.396 101.027 246.344 101.58 245.767C102.132 245.191 102.7 245.323 103.237 245.191C104.44 244.895 106.485 244.899 108.21 245.191C108.755 245.283 109.357 245.411 109.867 245.191C110.589 244.879 111.134 243.869 111.525 243.461C111.915 243.053 111.989 242.877 112.077 242.308C112.357 240.508 112.898 238.95 113.182 237.696C113.436 236.573 113.182 234.813 113.182 233.66C113.182 231.93 112.913 229.149 112.63 227.894C112.503 227.333 112.799 226.634 112.077 225.588C111.62 224.926 110.151 223.383 109.867 222.128C109.74 221.567 109.553 220.322 108.762 218.093C108.334 216.883 107.041 215.231 106.552 213.48C105.915 211.198 105.77 210.159 104.895 208.291C104.127 206.653 104.321 204.211 103.79 200.796C103.51 198.996 103.237 196.76 103.237 193.301C103.237 190.994 102.411 187.588 102.132 185.229C101.795 182.368 101.857 179.506 101.58 176.58C101.362 174.285 101.278 171.327 100.475 168.509C99.6271 165.532 99.1792 163.218 98.2649 160.437C97.463 157.998 96.2129 154.549 94.95 152.941C93.9593 151.68 94.1382 150.46 93.2925 148.329C92.6945 146.822 91.7701 145.438 91.6351 144.293C91.3567 141.934 90.9109 141.364 90.5301 139.681C89.9624 137.171 89.2657 135.721 88.3201 133.338C87.6515 131.654 87.5141 130.632 87.2151 129.879C86.7923 128.814 86.394 128.251 86.1102 126.996C85.8563 125.874 85.7691 125.223 85.5577 124.69C85.2587 123.937 85.1746 123.272 84.4527 122.96C83.9423 122.74 82.9646 122.696 82.2428 122.384C81.7323 122.163 81.2352 122.104 80.0328 121.807C79.4951 121.675 79.0972 121.543 78.3753 121.231C76.8441 120.569 76.1654 121.231 75.6129 121.231C75.0604 121.231 74.5079 121.231 73.9554 121.231C73.403 121.231 73.2411 121.4 72.8505 121.807C72.0691 122.623 71.7455 122.384 71.193 122.96V123.537H70.6405" fill="white"/>
<path d="M257.5 310C354.978 310 434 241.723 434 157.5C434 73.2766 354.978 5 257.5 5C160.022 5 81 73.2766 81 157.5C81 241.723 160.022 310 257.5 310Z" fill="white"/>
<path d="M472.519 186.636L456.95 129.94C454.935 122.588 449.668 116.9 442.499 114.335C439.026 113.092 435.367 112.716 431.82 113.157C431.081 108.997 430.198 104.865 429.165 100.77C451.798 98.433 469.509 79.252 469.509 56.011V45C469.509 20.187 449.322 0 424.509 0H87.4899C62.6769 0 42.4899 20.187 42.4899 45V56.01C42.4899 79.251 60.2009 98.432 82.8339 100.769C81.8009 104.864 80.9179 108.996 80.1789 113.156C76.6319 112.715 72.9729 113.091 69.4999 114.334C62.3319 116.899 57.0639 122.587 55.0499 129.936L39.4799 186.637C37.2189 194.878 39.6679 203.639 45.8669 209.498L88.5659 249.917C92.9009 254.021 98.4629 256.242 104.344 256.242C104.748 256.242 105.154 256.231 105.56 256.21C108.791 256.043 111.927 255.195 114.769 253.774C135.962 281.127 164.905 302.183 198.281 313.613C196.532 319.302 195.628 325.222 195.628 331.31C195.628 347.051 201.687 361.398 211.588 372.158V427.189H152.23C128.851 427.189 109.83 446.214 109.83 469.599C109.83 480.914 114.238 491.56 122.251 499.586C130.268 507.592 140.915 512 152.23 512H359.77C383.149 512 402.17 492.979 402.17 469.6C402.17 458.272 397.76 447.624 389.753 439.617C386.212 436.076 382.115 433.213 377.576 431.107C373.819 429.365 369.36 430.997 367.616 434.754C365.873 438.511 367.506 442.97 371.263 444.713C374.201 446.076 376.853 447.93 379.146 450.223C384.32 455.397 387.169 462.279 387.169 469.6C387.169 484.708 374.877 497 359.769 497H152.23C144.917 497 138.034 494.149 132.857 488.981C127.68 483.796 124.83 476.913 124.83 469.6C124.83 454.486 137.122 442.19 152.23 442.19H344.77C348.912 442.19 352.27 438.832 352.27 434.69C352.27 430.548 348.912 427.19 344.77 427.19H300.408V372.167C310.315 361.407 316.378 347.056 316.378 331.311C316.378 325.224 315.474 319.303 313.724 313.612C347.098 302.182 376.039 281.126 397.23 253.775C400.072 255.196 403.208 256.044 406.439 256.211C406.846 256.232 407.251 256.243 407.655 256.243C413.535 256.243 419.098 254.022 423.432 249.918L466.128 209.502C472.332 203.64 474.781 194.878 472.519 186.636ZM104.784 241.231C103.239 241.315 100.959 240.994 98.8789 239.024L56.1739 198.6C54.0079 196.553 53.1539 193.49 53.9449 190.607L69.5159 133.904C70.2199 131.336 72.0559 129.35 74.5549 128.456C75.7539 128.026 76.9829 127.888 78.1749 128.011C77.6679 133.509 77.4099 139.042 77.4099 144.599C77.4099 180.126 87.8409 213.261 105.796 241.108C105.463 241.168 105.126 241.214 104.784 241.231ZM226.589 427.19V384.014C235.298 388.895 245.326 391.691 255.999 391.691C266.672 391.691 276.699 388.896 285.409 384.017V427.19H226.589ZM301.378 331.311C301.378 356.333 281.021 376.691 255.998 376.691C230.981 376.691 210.628 356.334 210.628 331.311C210.628 326.678 211.322 322.178 212.665 317.862C226.545 321.335 241.059 323.19 256 323.19C270.943 323.19 285.459 321.335 299.341 317.861C300.684 322.178 301.378 326.678 301.378 331.311ZM256 308.19C165.796 308.19 92.4099 234.804 92.4099 144.6C92.4099 129.784 94.3889 115.148 98.2869 101.01H128.9C133.042 101.01 136.4 97.652 136.4 93.51C136.4 89.368 133.042 86.01 128.9 86.01H87.4899C70.9479 86.01 57.4899 72.552 57.4899 56.01V45C57.4899 28.458 70.9479 15 87.4899 15H424.51C441.052 15 454.51 28.458 454.51 45V56.01C454.51 72.552 441.052 86.01 424.51 86.01H158.9C154.758 86.01 151.4 89.368 151.4 93.51C151.4 97.652 154.758 101.01 158.9 101.01H413.713C417.611 115.148 419.59 129.784 419.59 144.6C419.59 234.804 346.204 308.19 256 308.19ZM455.821 198.605L413.12 239.025C411.041 240.993 408.765 241.314 407.216 241.231C406.874 241.213 406.538 241.168 406.204 241.109C424.159 213.261 434.59 180.127 434.59 144.6C434.59 139.044 434.332 133.51 433.825 128.013C435.016 127.889 436.246 128.028 437.445 128.457C439.944 129.351 441.78 131.337 442.485 133.908L458.055 190.606C458.845 193.491 457.991 196.554 455.821 198.605Z" fill="white"/>
<path d="M276.105 128.2C271.897 121.187 264.503 117 256.325 117C248.146 117 240.752 121.187 236.544 128.2L206.294 178.62C201.902 185.94 201.902 195.035 206.294 202.355L236.544 252.775C240.752 259.788 248.146 263.975 256.325 263.975C264.503 263.975 271.898 259.788 276.105 252.775L306.355 202.355C310.747 195.035 310.747 185.94 306.355 178.62L276.105 128.2ZM293.492 194.638L263.242 245.058C261.121 248.593 257.697 248.975 256.324 248.975C254.95 248.975 251.527 248.593 249.406 245.058L219.156 194.638C217.62 192.078 217.62 188.897 219.156 186.337L249.406 135.917C251.527 132.382 254.951 132 256.324 132C257.697 132 261.121 132.382 263.242 135.917L293.492 186.337C295.028 188.897 295.028 192.078 293.492 194.638Z" fill="white" stroke="#F6E9E9"/>
<path d="M378 432L346 428L347 441.5L375 442L378 432Z" fill="white" stroke="white"/>
<path d="M375 431C375.178 430.239 345 427 345 428V428.5C345.63 428.563 346.299 428.629 347 428.699C357.439 429.73 374.915 431.365 375 431Z" stroke="white"/>
</svg>
