<svg width="604" height="604" viewBox="0 0 604 604" fill="none" xmlns="http://www.w3.org/2000/svg">
<circle cx="301.943" cy="301.943" r="200" transform="rotate(90.3723 301.943 301.943)" fill="#E3E3E3"/>
<circle cx="301.943" cy="301.943" r="185" transform="rotate(90.3723 301.943 301.943)" fill="white"/>
<circle cx="301.943" cy="301.943" r="170" transform="rotate(90.3723 301.943 301.943)" fill="#363333"/>
<path d="M601.937 303.893L150.258 560.771L153.635 41.1663L601.937 303.893Z" fill="#2A2438"/>
<path d="M571.937 303.698L165.426 534.888L168.465 67.244L571.937 303.698Z" fill="#F4F4F4"/>
<line x1="194.418" y1="127.675" x2="259.31" y2="222.616" stroke="#CDCDCD"/>
<line x1="203.286" y1="481.419" x2="262.706" y2="382.961" stroke="#CDCDCD"/>
<line x1="486.92" y1="300.362" x2="371.937" y2="302.28" stroke="#CDCDCD"/>
<line x1="414.619" y1="364.573" x2="367.749" y2="338.081" stroke="#CDCDCD"/>
<line x1="242.005" y1="255.114" x2="200.779" y2="220.487" stroke="#CDCDCD"/>
<line x1="249.109" y1="362.84" x2="203.512" y2="394.973" stroke="#CDCDCD"/>
<line x1="231.4" y1="279.151" x2="193.195" y2="265.721" stroke="#CDCDCD"/>
<line x1="232.631" y1="335.119" x2="196.54" y2="353.489" stroke="#CDCDCD"/>
<line x1="227.947" y1="303.891" x2="180.958" y2="304.972" stroke="#CDCDCD"/>
<path d="M388.811 392.716L354.899 366.845" stroke="#CDCDCD"/>
<path d="M340.743 423.366L328.709 400.24" stroke="#CDCDCD"/>
<path d="M321.975 439.053L317.263 413.413" stroke="#CDCDCD"/>
<path d="M302.629 451.031L302.772 425.631" stroke="#CDCDCD"/>
<path d="M363.556 410.72L341.648 385.045" stroke="#CDCDCD"/>
<path d="M233.213 324.519C228.557 324.519 225.197 323.583 223.133 321.711C221.069 319.839 219.941 316.719 219.749 312.351C219.701 310.767 219.677 309.183 219.677 307.599C219.725 305.967 219.821 304.335 219.965 302.703H227.813C227.717 304.671 227.645 306.567 227.597 308.391C227.597 310.215 227.669 311.991 227.813 313.719C227.957 316.359 229.733 317.679 233.141 317.679C236.357 317.679 238.109 316.359 238.397 313.719C238.493 312.327 238.541 310.863 238.541 309.327C238.541 307.743 238.493 306.255 238.397 304.863C238.205 301.935 236.717 300.135 233.933 299.463L228.605 298.239C225.245 297.471 222.917 296.079 221.621 294.063C220.373 291.999 219.701 289.167 219.605 285.567C219.557 284.271 219.533 282.999 219.533 281.751C219.533 280.455 219.557 279.159 219.605 277.863C219.749 273.543 220.853 270.447 222.917 268.575C225.029 266.703 228.437 265.767 233.141 265.767C237.701 265.767 241.013 266.703 243.077 268.575C245.141 270.447 246.245 273.543 246.389 277.863C246.437 279.159 246.437 280.623 246.389 282.255C246.389 283.887 246.365 285.519 246.317 287.151H238.325C238.421 285.231 238.469 283.407 238.469 281.679C238.517 279.951 238.493 278.223 238.397 276.495C238.301 273.903 236.549 272.607 233.141 272.607C229.829 272.607 228.077 273.903 227.885 276.495C227.741 278.031 227.669 279.543 227.669 281.031C227.669 282.519 227.741 284.031 227.885 285.567C227.933 287.103 228.221 288.327 228.749 289.239C229.325 290.103 230.237 290.679 231.485 290.967L236.309 291.975C240.005 292.791 242.621 294.255 244.157 296.367C245.693 298.431 246.533 301.263 246.677 304.863C246.725 306.063 246.725 307.335 246.677 308.679C246.677 309.975 246.653 311.199 246.605 312.351C246.413 316.719 245.285 319.839 243.221 321.711C241.157 323.583 237.821 324.519 233.213 324.519ZM264.621 323.943V273.687H255.189V266.343H282.189V273.687H272.829V323.943H264.621ZM287.229 323.943L294.357 266.343H309.405L316.533 323.943H308.037L306.741 309.759H297.093L295.725 323.943H287.229ZM297.813 302.487H305.949L304.797 290.031L303.501 273.687H300.261L299.037 290.031L297.813 302.487ZM326.06 323.943V266.343H338.732C343.244 266.343 346.484 267.255 348.452 269.079C350.468 270.903 351.548 273.879 351.692 278.007C351.788 280.743 351.836 283.095 351.836 285.063C351.836 286.983 351.788 289.143 351.692 291.543C351.596 294.231 351.116 296.415 350.252 298.095C349.436 299.775 348.14 301.023 346.364 301.839L352.628 323.943H343.916L338.516 303.207H334.268V323.943H326.06ZM334.268 295.863H338.732C340.364 295.863 341.54 295.551 342.26 294.927C342.98 294.303 343.388 293.319 343.484 291.975C343.58 289.431 343.628 287.031 343.628 284.775C343.628 282.519 343.58 280.143 343.484 277.647C343.388 276.255 342.98 275.247 342.26 274.623C341.54 273.999 340.364 273.687 338.732 273.687H334.268V295.863ZM369.53 323.943V273.687H360.098V266.343H387.098V273.687H377.738V323.943H369.53Z" fill="black"/>
</svg>
