<svg width="511" height="547" xmlns="http://www.w3.org/2000/svg">

 <g>
  <title>background</title>
  <rect fill="none" id="canvas_background" height="549" width="513" y="-1" x="-1"/>
 </g>
 <g>
  <title>Layer 1</title>
  <circle id="svg_1" fill="#E3E3E3" transform="rotate(-32 205.5709228515623,265.3617553710937) " r="200" cy="265.361772" cx="205.570939"/>
  <circle id="svg_2" fill="white" transform="rotate(-32 205.5709533691407,265.36178588867193) " r="185" cy="265.361772" cx="205.570939"/>
  <circle id="svg_3" fill="#363333" transform="rotate(-32 205.5709533691407,265.36178588867193) " r="170" cy="265.361772" cx="205.570939"/>
  <path id="svg_4" fill="#2A2438" d="m46.594939,10.946772l458.793,243.945l-440.658,275.354l-18.135,-519.299z"/>
  <path id="svg_5" fill="#F4F4F4" d="m62.492939,36.388772l412.914,219.55l-396.593,247.818l-16.321,-467.368z"/>
  <path id="svg_6" fill="black" d="m222.076939,303.098772c-39.42,24.632 -83.373,35.988 -117.579,30.371c-2.944,-0.483 -5.575,-2.116 -7.316,-4.539c-1.74,-2.423 -2.446,-5.439 -1.963,-8.383c0.483,-2.944 2.115,-5.575 4.539,-7.316c2.423,-1.74 5.438,-2.446 8.382,-1.963c28.965,4.754 67.099,-5.434 102.014,-27.251c34.915,-21.818 60.789,-51.627 69.213,-79.743c0.424,-1.416 1.123,-2.733 2.056,-3.878c0.933,-1.145 2.083,-2.095 3.384,-2.796c1.3,-0.701 2.726,-1.138 4.195,-1.288c1.47,-0.15 2.955,-0.009 4.37,0.416c1.415,0.424 2.733,1.122 3.878,2.056c1.145,0.933 2.095,2.083 2.795,3.383c0.701,1.301 1.139,2.726 1.288,4.196c0.15,1.47 0.009,2.954 -0.415,4.369c-9.947,33.207 -39.421,67.733 -78.841,92.366z"/>
  <line id="svg_7" stroke="#CDCDCD" y2="343.221772" x2="159.131939" y1="447.862772" x1="111.433939"/>
  <line id="svg_8" stroke="#CDCDCD" y2="257.389772" x2="294.611939" y1="257.325772" x1="409.610939"/>
  <line id="svg_9" stroke="#CDCDCD" y2="205.626772" x2="169.066939" y1="108.206772" x1="107.958939"/>
  <line id="svg_10" stroke="#CDCDCD" y2="190.695772" x2="201.872939" y1="136.879772" x1="200.307939"/>
  <line id="svg_11" stroke="#CDCDCD" y2="394.418772" x2="187.580939" y1="341.225772" x1="195.895939"/>
  <line id="svg_12" stroke="#CDCDCD" y2="301.839772" x2="335.504939" y1="279.432772" x1="284.421939"/>
  <line id="svg_13" stroke="#CDCDCD" y2="377.515772" x2="230.217939" y1="337.870772" x1="221.953939"/>
  <line id="svg_14" stroke="#CDCDCD" y2="329.261772" x2="303.605939" y1="307.872772" x1="269.217939"/>
  <line id="svg_15" stroke="#CDCDCD" y2="367.689772" x2="270.138939" y1="328.031772" x1="244.912939"/>
  <path id="svg_16" stroke="#CDCDCD" d="m237.741939,144.412772l-4.604,42.405"/>
  <path id="svg_17" stroke="#CDCDCD" d="m288.834939,169.702772l-13.569,22.259"/>
  <path id="svg_18" stroke="#CDCDCD" d="m311.966939,177.652772l-19.507,17.294"/>
  <path id="svg_19" stroke="#CDCDCD" d="m332.223939,188.015772l-21.813,13.014"/>
  <path id="svg_20" stroke="#CDCDCD" d="m266.212939,156.717772l-10.644,32.029"/>
  <path id="svg_21" fill="#F4F4F4" d="m166.144939,339.668772c-16.483,-16.122 -19.806,-26.829 -15.006,-48.95l-61.122,5.835l6.514,52.289l69.614,-9.174z"/>
  <path id="svg_22" fill="#F4F4F4" d="m292.004939,253.620772c-9.49,-20.309 -18.485,-27.211 -43.01,-29.196l36.966,-32.905l14.202,6.694l21.661,15.331l-29.819,40.076z"/>
  <path id="svg_23" fill="#F4F4F4" d="m176.028939,279.386772c-2.374,24.98 2.329,36.229 20.321,51.823l-54.775,7.416l-12.151,-47.105l46.605,-12.134z"/>
  <path id="svg_24" fill="#F4F4F4" d="m225.450939,247.642772c27.984,8.307 36.421,17.098 40.389,39.114l38.301,-49.366l-41.023,-28.586l-37.667,38.838z"/>
  <path id="svg_25" fill="#F4F4F4" d="m214.762939,313.553772l-20,-38l-34,9l17.5,44l36.5,-15z"/>
  <path id="svg_26" fill="#F4F4F4" d="m242.262939,297.553772l-27.5,-35l31.5,-18.5l25,29l-29,24.5z"/>
 </g>
</svg>