<svg width="600" height="600" viewBox="0 0 600 600" fill="none" xmlns="http://www.w3.org/2000/svg">
<circle cx="300" cy="300" r="200" fill="#E3E3E3"/>
<circle cx="300" cy="300" r="185" fill="white"/>
<circle cx="300" cy="300" r="170" fill="#363333"/>
<path d="M300 0L559.808 450H40.1924L300 0Z" fill="#2A2438"/>
<path d="M300 30L533.827 435H66.1731L300 30Z" fill="#F4F4F4"/>
<line x1="123.456" y1="404.885" x2="219.358" y2="341.42" stroke="#CDCDCD"/>
<line x1="477.294" y1="401.31" x2="379.735" y2="340.424" stroke="#CDCDCD"/>
<line x1="300.5" y1="114.999" x2="300.698" y2="229.998" stroke="#CDCDCD"/>
<line x1="363.622" y1="188.253" x2="336.431" y2="234.721" stroke="#CDCDCD"/>
<line x1="251.593" y1="359.21" x2="216.353" y2="399.913" stroke="#CDCDCD"/>
<line x1="359.413" y1="353.718" x2="390.86" y2="399.79" stroke="#CDCDCD"/>
<line x1="275.469" y1="370.173" x2="261.469" y2="408.173" stroke="#CDCDCD"/>
<line x1="331.449" y1="369.78" x2="349.277" y2="406.141" stroke="#CDCDCD"/>
<line x1="300.155" y1="373.996" x2="300.532" y2="420.996" stroke="#CDCDCD"/>
<path d="M391.375 214.478L365 248" stroke="#CDCDCD"/>
<path d="M421.303 263L398 274.686" stroke="#CDCDCD"/>
<path d="M436.708 282L411 286.329" stroke="#CDCDCD"/>
<path d="M448.395 301.523L423 301" stroke="#CDCDCD"/>
<path d="M409 240L383 261.522" stroke="#CDCDCD"/>
<path d="M300 230C255.211 230 220.32 256.688 177.5 300C214.359 337.023 245.312 370 300 370C354.633 370 394.828 328.219 422.5 300.766C394.172 268.609 354.031 230 300 230V230ZM300 349.93C272.984 349.93 251 327.508 251 300C251 272.437 272.984 250.07 300 250.07C327.016 250.07 349 272.492 349 300C349 327.563 327.016 349.93 300 349.93Z" fill="black"/>
<path d="M300 282.5C300 278.18 301.586 274.242 304.156 271.18C302.789 270.961 301.422 270.852 300 270.852C284.25 270.852 271.398 283.922 271.398 300C271.398 316.078 284.25 329.148 300 329.148C315.75 329.148 328.602 316.078 328.602 300C328.602 298.742 328.492 297.484 328.383 296.227C325.375 298.578 321.656 300 317.555 300C307.82 300 300 292.18 300 282.5Z" fill="black"/>
<path d="M178 300C178 300 295 190.469 423 300C385.5 245.667 284 169.601 178 300Z" fill="#F4F4F4"/>
</svg>
