<svg width="515" height="558" xmlns="http://www.w3.org/2000/svg">

 <g>
  <title>background</title>
  <rect fill="none" id="canvas_background" height="560" width="517" y="-1" x="-1"/>
 </g>
 <g>
  <title>Layer 1</title>
  <circle id="svg_1" fill="#E3E3E3" transform="rotate(-32 208.49334716796884,278.50830078125) " r="200" cy="278.508286" cx="208.493333"/>
  <circle id="svg_2" fill="white" transform="rotate(-32 208.49334716796884,278.50830078125) " r="185" cy="278.508286" cx="208.493333"/>
  <circle id="svg_3" fill="#363333" transform="rotate(-32 208.49334716796884,278.50830078125) " r="170" cy="278.508286" cx="208.493333"/>
  <path id="svg_4" fill="#2A2438" d="m49.517333,24.094286l458.793,243.944l-440.658,275.354l-18.135,-519.298z"/>
  <path id="svg_5" fill="#F4F4F4" d="m65.415333,49.535286l412.914,219.55l-396.593,247.819l-16.321,-467.369z"/>
  <path id="svg_6" fill="black" d="m224.999333,316.245286c-39.42,24.633 -83.373,35.988 -117.579,30.371c-2.944,-0.483 -5.575,-2.115 -7.316,-4.539c-1.74,-2.423 -2.446,-5.438 -1.963,-8.382c0.483,-2.944 2.116,-5.576 4.539,-7.316c2.423,-1.74 5.438,-2.447 8.382,-1.964c28.965,4.754 67.099,-5.433 102.014,-27.251c34.915,-21.817 60.789,-51.626 69.213,-79.743c0.424,-1.415 1.123,-2.733 2.056,-3.878c0.933,-1.145 2.083,-2.095 3.384,-2.795c1.3,-0.701 2.726,-1.139 4.195,-1.288c1.47,-0.15 2.955,-0.009 4.37,0.415c1.415,0.424 2.733,1.123 3.878,2.056c1.145,0.933 2.095,2.083 2.795,3.384c0.701,1.3 1.139,2.726 1.288,4.195c0.15,1.47 0.009,2.955 -0.415,4.37c-9.947,33.206 -39.421,67.733 -78.841,92.365z"/>
  <line id="svg_7" stroke="#CDCDCD" y2="356.369286" x2="162.054333" y1="461.009286" x1="114.356333"/>
  <line id="svg_8" stroke="#CDCDCD" y2="270.536286" x2="297.534333" y1="270.472286" x1="412.533333"/>
  <line id="svg_9" stroke="#CDCDCD" y2="218.773286" x2="171.989333" y1="121.354286" x1="110.881333"/>
  <line id="svg_10" stroke="#CDCDCD" y2="203.843286" x2="204.795333" y1="150.026286" x1="203.230333"/>
  <line id="svg_11" stroke="#CDCDCD" y2="407.566286" x2="190.503333" y1="354.373286" x1="198.818333"/>
  <line id="svg_12" stroke="#CDCDCD" y2="314.986286" x2="338.427333" y1="292.580286" x1="287.344333"/>
  <line id="svg_13" stroke="#CDCDCD" y2="390.662286" x2="233.140333" y1="351.017286" x1="224.876333"/>
  <line id="svg_14" stroke="#CDCDCD" y2="342.408286" x2="306.528333" y1="321.019286" x1="272.141333"/>
  <line id="svg_15" stroke="#CDCDCD" y2="380.836286" x2="273.061333" y1="341.178286" x1="247.835333"/>
  <path id="svg_16" stroke="#CDCDCD" d="m240.664333,157.560286l-4.604,42.405"/>
  <path id="svg_17" stroke="#CDCDCD" d="m291.757333,182.849286l-13.569,22.26"/>
  <path id="svg_18" stroke="#CDCDCD" d="m314.889333,190.799286l-19.507,17.294"/>
  <path id="svg_19" stroke="#CDCDCD" d="m335.146333,201.163286l-21.813,13.013"/>
  <path id="svg_20" stroke="#CDCDCD" d="m269.135333,169.864286l-10.644,32.03"/>
  <path id="svg_21" fill="#F4F4F4" d="m169.067333,352.815286c-16.483,-16.121 -19.806,-26.829 -15.005,-48.95l-61.123,5.836l6.514,52.288l69.614,-9.174z"/>
  <path id="svg_22" fill="#F4F4F4" d="m294.927333,266.767286c-9.49,-20.308 -18.485,-27.21 -43.01,-29.196l36.966,-32.904l14.202,6.693l21.661,15.332l-29.819,40.075z"/>
  <path id="svg_23" fill="#F4F4F4" d="m178.951333,292.534286c-2.374,24.979 2.329,36.229 20.321,51.822l-54.775,7.416l-12.151,-47.104l46.605,-12.134z"/>
  <path id="svg_24" fill="#F4F4F4" d="m228.373333,260.790286c27.985,8.306 36.421,17.098 40.39,39.114l38.3,-49.367l-41.023,-28.585l-37.667,38.838z"/>
  <path id="svg_25" fill="#F4F4F4" d="m217.685333,326.701286l-20,-38l-34,9l17.5,44l36.5,-15z"/>
  <path id="svg_26" fill="#F4F4F4" d="m245.185333,310.701286l-27.5,-35l31.5,-18.5l25,29l-29,24.5z"/>
  <path id="svg_27" fill="#F4F4F4" d="m209.603333,336.618286l-37.5,-48.5l54,-28.5l37.5,42l-54,35z"/>
  <path id="svg_28" fill="black" d="m138.373333,306.694286c-4.656,0 -8.016,-0.936 -10.08,-2.808c-2.064,-1.872 -3.192,-4.992 -3.384,-9.36c-0.048,-1.584 -0.072,-3.168 -0.072,-4.752c0.048,-1.632 0.144,-3.264 0.288,-4.896l7.848,0c-0.096,1.968 -0.168,3.864 -0.216,5.688c0,1.824 0.072,3.6 0.216,5.328c0.144,2.64 1.92,3.96 5.328,3.96c3.216,0 4.968,-1.32 5.256,-3.96c0.096,-1.392 0.144,-2.856 0.144,-4.392c0,-1.584 -0.048,-3.072 -0.144,-4.464c-0.192,-2.928 -1.68,-4.728 -4.464,-5.4l-5.328,-1.224c-3.36,-0.768 -5.688,-2.16 -6.984,-4.176c-1.248,-2.064 -1.92,-4.896 -2.016,-8.496c-0.048,-1.296 -0.072,-2.568 -0.072,-3.816c0,-1.296 0.024,-2.592 0.072,-3.888c0.144,-4.32 1.248,-7.416 3.312,-9.288c2.112,-1.872 5.52,-2.808 10.224,-2.808c4.56,0 7.872,0.936 9.936,2.808c2.064,1.872 3.168,4.968 3.312,9.288c0.048,1.296 0.048,2.76 0,4.392c0,1.632 -0.024,3.264 -0.072,4.896l-7.992,0c0.096,-1.92 0.144,-3.744 0.144,-5.472c0.048,-1.728 0.024,-3.456 -0.072,-5.184c-0.096,-2.592 -1.848,-3.888 -5.256,-3.888c-3.312,0 -5.064,1.296 -5.256,3.888c-0.144,1.536 -0.216,3.048 -0.216,4.536c0,1.488 0.072,3 0.216,4.536c0.048,1.536 0.336,2.76 0.864,3.672c0.576,0.864 1.488,1.44 2.736,1.728l4.824,1.008c3.696,0.816 6.312,2.28 7.848,4.392c1.536,2.064 2.376,4.896 2.52,8.496c0.048,1.2 0.048,2.472 0,3.816c0,1.296 -0.024,2.52 -0.072,3.672c-0.192,4.368 -1.32,7.488 -3.384,9.36c-2.064,1.872 -5.4,2.808 -10.008,2.808zm31.408,-0.576l0,-50.256l-9.432,0l0,-7.344l27,0l0,7.344l-9.36,0l0,50.256l-8.208,0zm22.608,0l7.128,-57.6l15.048,0l7.128,57.6l-8.496,0l-1.296,-14.184l-9.648,0l-1.368,14.184l-8.496,0zm10.584,-21.456l8.136,0l-1.152,-12.456l-1.296,-16.344l-3.24,0l-1.224,16.344l-1.224,12.456zm28.247,21.456l0,-57.6l12.672,0c4.512,0 7.752,0.912 9.72,2.736c2.016,1.824 3.096,4.8 3.24,8.928c0.096,2.736 0.144,5.088 0.144,7.056c0,1.92 -0.048,4.08 -0.144,6.48c-0.096,2.688 -0.576,4.872 -1.44,6.552c-0.816,1.68 -2.112,2.928 -3.888,3.744l6.264,22.104l-8.712,0l-5.4,-20.736l-4.248,0l0,20.736l-8.208,0zm8.208,-28.08l4.464,0c1.632,0 2.808,-0.312 3.528,-0.936c0.72,-0.624 1.128,-1.608 1.224,-2.952c0.096,-2.544 0.144,-4.944 0.144,-7.2c0,-2.256 -0.048,-4.632 -0.144,-7.128c-0.096,-1.392 -0.504,-2.4 -1.224,-3.024c-0.72,-0.624 -1.896,-0.936 -3.528,-0.936l-4.464,0l0,22.176zm35.262,28.08l0,-50.256l-9.432,0l0,-7.344l27,0l0,7.344l-9.36,0l0,50.256l-8.208,0z"/>
 </g>
</svg>