<svg width="767" height="646" viewBox="0 0 767 646" fill="none" xmlns="http://www.w3.org/2000/svg">
<path d="M552.779 257.046C561.369 250.966 573.839 255.096 576.739 265.676L592.309 322.376C593.829 327.916 592.179 333.856 587.999 337.806L545.299 378.226C538.529 384.636 528.279 383.486 522.779 377.076" fill="#DA4A54"/>
<path d="M243.265 377.076C237.765 383.486 227.515 384.636 220.745 378.226L178.045 337.806C173.865 333.856 172.215 327.916 173.735 322.376L189.305 265.676C192.205 255.096 204.675 250.966 213.265 257.046" fill="#C32430"/>
<path d="M419.93 480.649V590.727H346.11V480.632" fill="#F6E266"/>
<path d="M378.249 480.649V590.727H346.11V480.632" fill="#EAB14D"/>
<path d="M383.022 517.944C412.224 517.944 435.896 494.272 435.896 465.07C435.896 435.869 412.224 412.196 383.022 412.196C353.821 412.196 330.148 435.869 330.148 465.07C330.148 494.272 353.821 517.944 383.022 517.944Z" fill="#F6E266"/>
<path d="M398.99 515.485C393.96 517.085 388.59 517.945 383.03 517.945C353.83 517.945 330.15 494.275 330.15 465.065C330.15 435.865 353.83 412.195 383.03 412.195C388.59 412.195 393.96 413.055 398.99 414.655C377.59 421.415 362.08 441.425 362.08 465.065C362.08 488.705 377.59 508.724 398.99 515.485V515.485Z" fill="#EAB14D"/>
<path d="M551.533 227.262H214.514C193.804 227.262 177.016 210.473 177.016 189.764V178.755C177.016 158.045 193.805 141.257 214.514 141.257H551.533C572.243 141.257 589.031 158.046 589.031 178.755V189.763C589.031 210.473 572.243 227.262 551.533 227.262V227.262Z" fill="#F6E266"/>
<path d="M319.594 227.263H214.515C193.805 227.263 177.015 210.473 177.015 189.763V178.754C177.015 158.044 193.805 141.254 214.515 141.254H319.594C298.884 141.254 282.094 158.044 282.094 178.754V189.764C282.095 210.473 298.885 227.263 319.594 227.263Z" fill="#EAB14D"/>
<path d="M554.11 278.356C554.11 372.845 477.51 449.445 383.021 449.445C382.651 449.445 382.271 449.445 381.901 449.435H381.891C370.891 449.375 360.141 448.265 349.731 446.205C271.171 430.715 211.932 361.455 211.932 278.356C211.932 260.556 214.652 243.396 219.692 227.266H546.35C549.03 235.846 551.06 244.716 552.36 253.826C553.51 261.836 554.11 270.026 554.11 278.356V278.356Z" fill="#F6E266"/>
<path d="M349.731 446.205C271.171 430.715 211.932 361.455 211.932 278.356C211.932 260.556 214.652 243.396 219.692 227.266H546.35C549.03 235.846 551.06 244.716 552.36 253.826H320.449C307.014 253.826 296.022 264.671 296.012 278.106V278.356C296.012 344.966 322.392 420.255 349.731 446.205V446.205Z" fill="#EAB14D"/>
<path d="M383.012 199.786L382.492 199.697L382.622 199.656L383.012 199.786Z" fill="#EAB14D"/>
<path d="M486.788 568.447H279.258C259.981 568.447 244.354 584.074 244.354 603.351C244.354 622.628 259.981 638.255 279.258 638.255H486.789C506.066 638.255 521.693 622.628 521.693 603.351C521.692 584.074 506.065 568.447 486.788 568.447Z" fill="#F6E266"/>
<path d="M328.914 628.03C335.234 634.34 343.954 638.25 353.594 638.25H279.264C269.624 638.25 260.894 634.34 254.574 628.03C248.264 621.71 244.354 612.991 244.354 603.35C244.354 584.07 259.984 568.44 279.264 568.44H353.594C334.314 568.44 318.694 584.07 318.694 603.35C318.694 612.991 322.594 621.71 328.914 628.03V628.03Z" fill="#EAB14D"/>
<path d="M426.622 310.352L396.372 259.932C390.326 249.854 375.72 249.854 369.673 259.932L339.423 310.352C336.465 315.282 336.465 321.44 339.423 326.37L369.673 376.79C375.719 386.868 390.325 386.868 396.372 376.79L426.622 326.37C429.58 321.44 429.58 315.281 426.622 310.352V310.352Z" fill="#DA4A54"/>
<path d="M383.023 384.349C377.863 384.349 372.703 381.829 369.673 376.789L339.423 326.369C336.473 321.439 336.473 315.289 339.423 310.359L369.673 259.939C372.703 254.899 377.863 252.379 383.023 252.379C381.163 252.379 379.303 254.899 378.213 259.939L367.313 310.359C366.253 315.289 366.253 321.439 367.313 326.369L378.213 376.789C379.303 381.829 381.163 384.349 383.023 384.349V384.349Z" fill="#C32430"/>
<path d="M402.804 256.073C398.596 249.06 391.202 244.873 383.024 244.873C374.845 244.873 367.451 249.06 363.243 256.073L332.993 306.493C328.601 313.813 328.601 322.908 332.993 330.228L363.243 380.648C367.451 387.661 374.845 391.848 383.024 391.848C391.202 391.848 398.597 387.661 402.804 380.648L433.054 330.228C437.446 322.908 437.446 313.813 433.054 306.493L402.804 256.073ZM420.191 322.511L389.941 372.931C387.82 376.466 384.396 376.848 383.023 376.848C381.649 376.848 378.226 376.466 376.105 372.931L345.855 322.511C344.319 319.951 344.319 316.77 345.855 314.21L376.105 263.79C378.226 260.255 381.65 259.873 383.023 259.873C384.396 259.873 387.82 260.255 389.941 263.79L420.191 314.21C421.727 316.77 421.727 319.951 420.191 322.511Z" fill="black"/>
<path d="M599.542 320.39L583.973 263.694C581.958 256.342 576.691 250.654 569.522 248.089C566.049 246.846 562.39 246.47 558.843 246.911C558.104 242.751 557.221 238.619 556.188 234.524C578.821 232.187 596.532 213.006 596.532 189.765V178.754C596.532 153.941 576.345 133.754 551.532 133.754H214.513C189.7 133.754 169.513 153.941 169.513 178.754V189.764C169.513 213.005 187.224 232.186 209.857 234.523C208.824 238.618 207.941 242.75 207.202 246.91C203.655 246.469 199.996 246.845 196.523 248.088C189.355 250.653 184.087 256.341 182.073 263.69L166.503 320.391C164.242 328.632 166.691 337.393 172.89 343.252L215.589 383.671C219.924 387.775 225.486 389.996 231.367 389.996C231.771 389.996 232.177 389.985 232.583 389.964C235.814 389.797 238.95 388.949 241.792 387.528C262.985 414.881 291.928 435.937 325.304 447.367C323.555 453.056 322.651 458.976 322.651 465.064C322.651 480.805 328.71 495.152 338.611 505.912V560.943H279.253C255.874 560.943 236.853 579.968 236.853 603.353C236.853 614.668 241.261 625.314 249.274 633.34C257.291 641.346 267.938 645.754 279.253 645.754H486.793C510.172 645.754 529.193 626.733 529.193 603.354C529.193 592.026 524.783 581.378 516.776 573.371C513.235 569.83 509.138 566.967 504.599 564.861C500.842 563.119 496.383 564.751 494.639 568.508C492.896 572.265 494.529 576.724 498.286 578.467C501.224 579.83 503.876 581.684 506.169 583.977C511.343 589.151 514.192 596.033 514.192 603.354C514.192 618.462 501.9 630.754 486.792 630.754H279.253C271.94 630.754 265.057 627.903 259.88 622.735C254.703 617.55 251.853 610.667 251.853 603.354C251.853 588.24 264.145 575.944 279.253 575.944H471.793C475.935 575.944 479.293 572.586 479.293 568.444C479.293 564.302 475.935 560.944 471.793 560.944H427.431V505.921C437.338 495.161 443.401 480.81 443.401 465.065C443.401 458.978 442.497 453.057 440.747 447.366C474.121 435.936 503.062 414.88 524.253 387.529C527.095 388.95 530.231 389.798 533.462 389.965C533.869 389.986 534.274 389.997 534.678 389.997C540.558 389.997 546.121 387.776 550.455 383.672L593.151 343.256C599.355 337.394 601.804 328.632 599.542 320.39V320.39ZM231.807 374.985C230.262 375.069 227.982 374.748 225.902 372.778L183.197 332.354C181.031 330.307 180.177 327.244 180.968 324.361L196.539 267.658C197.243 265.09 199.079 263.104 201.578 262.21C202.777 261.78 204.006 261.642 205.198 261.765C204.691 267.263 204.433 272.796 204.433 278.353C204.433 313.88 214.864 347.015 232.819 374.862C232.486 374.922 232.149 374.968 231.807 374.985ZM353.612 560.944V517.768C362.321 522.649 372.349 525.445 383.022 525.445C393.695 525.445 403.722 522.65 412.432 517.771V560.944H353.612ZM428.401 465.065C428.401 490.087 408.044 510.445 383.021 510.445C358.004 510.445 337.651 490.088 337.651 465.065C337.651 460.432 338.345 455.932 339.688 451.616C353.568 455.089 368.082 456.944 383.023 456.944C397.966 456.944 412.482 455.089 426.364 451.615C427.707 455.932 428.401 460.432 428.401 465.065V465.065ZM383.023 441.944C292.819 441.944 219.433 368.558 219.433 278.354C219.433 263.538 221.412 248.902 225.31 234.764H255.923C260.065 234.764 263.423 231.406 263.423 227.264C263.423 223.122 260.065 219.764 255.923 219.764H214.513C197.971 219.764 184.513 206.306 184.513 189.764V178.754C184.513 162.212 197.971 148.754 214.513 148.754H551.533C568.075 148.754 581.533 162.212 581.533 178.754V189.764C581.533 206.306 568.075 219.764 551.533 219.764H285.923C281.781 219.764 278.423 223.122 278.423 227.264C278.423 231.406 281.781 234.764 285.923 234.764H540.736C544.634 248.902 546.613 263.538 546.613 278.354C546.613 368.558 473.227 441.944 383.023 441.944V441.944ZM582.844 332.359L540.143 372.779C538.064 374.747 535.788 375.068 534.239 374.985C533.897 374.967 533.561 374.922 533.227 374.863C551.182 347.015 561.613 313.881 561.613 278.354C561.613 272.798 561.355 267.264 560.848 261.767C562.039 261.643 563.269 261.782 564.468 262.211C566.967 263.105 568.803 265.091 569.508 267.662L585.078 324.36C585.868 327.245 585.014 330.308 582.844 332.359V332.359Z" fill="black"/>
<line x1="618.153" y1="116.9" x2="690.927" y2="55.8352" stroke="#F6E266" stroke-width="17"/>
<line x1="393.167" y1="110" x2="393.167" stroke="#F6E266" stroke-width="17"/>
<line x1="656.048" y1="315.836" x2="766.048" y2="315.836" stroke="#F6E266" stroke-width="17"/>
<line y1="319.994" x2="110" y2="319.994" stroke="#F6E266" stroke-width="17"/>
<line x1="141.405" y1="128.218" x2="68.6312" y2="67.1529" stroke="#F6E266" stroke-width="17"/>
</svg>
