<svg width="767" height="746" viewBox="0 0 433 512" fill="none" xmlns="http://www.w3.org/2000/svg">
<path d="M427.343 202.482C427.147 202.678 426.952 202.863 426.725 203.059L383.354 244.122C376.38 250.726 365.82 249.541 360.154 242.937L368.643 208.972L391.06 119.284C399.909 113.02 412.756 117.275 415.743 128.174L431.783 186.585C433.349 192.294 431.649 198.413 427.343 202.482V202.482Z" fill="#DA4A54"/>
<path d="M426.725 203.059L383.354 244.122C376.38 250.726 365.82 249.541 360.154 242.937L368.643 208.972C376.699 227.134 416.413 212.351 426.725 203.059Z" fill="#C32430"/>
<path d="M72.2006 242.939C66.5346 249.542 55.9756 250.727 49.0006 244.124L5.0126 202.484C0.706596 198.415 -0.993402 192.296 0.572598 186.588L16.6126 128.177C19.6006 117.278 32.4466 113.023 41.2956 119.287" fill="#C32430"/>
<path d="M254.197 349.638V463.039H178.15V349.621" fill="#F6E266"/>
<path d="M211.258 349.638V463.039H178.15V349.621" fill="#EAB14D"/>
<path d="M270.641 333.593C270.641 363.675 246.257 388.059 216.175 388.059C186.093 388.059 161.709 363.675 161.709 333.593C161.709 329.854 162.09 326.207 162.801 322.684C167.849 297.826 189.833 279.118 216.175 279.118C242.517 279.118 264.501 297.826 269.549 322.684C270.26 326.207 270.641 329.854 270.641 333.593V333.593Z" fill="#F6E266"/>
<path d="M232.626 385.525C227.444 387.173 221.912 388.059 216.184 388.059C186.103 388.059 161.708 363.675 161.708 333.583C161.708 303.502 186.103 279.118 216.184 279.118C221.912 279.118 227.444 280.004 232.626 281.652C210.58 288.616 194.602 309.23 194.602 333.583C194.602 357.936 210.58 378.561 232.626 385.525V385.525Z" fill="#EAB14D"/>
<path d="M389.772 88.604H42.5807C21.2457 88.604 3.95068 71.309 3.95068 49.974V38.634C3.95068 17.299 21.2457 0.00402832 42.5807 0.00402832H389.772C411.107 0.00402832 428.402 17.299 428.402 38.634V49.974C428.402 71.308 411.107 88.604 389.772 88.604V88.604Z" fill="#F6E266"/>
<path d="M150.833 88.605H42.5817C21.2467 88.605 3.94971 71.308 3.94971 49.973V38.632C3.95071 17.297 21.2477 0 42.5817 0H150.833C129.498 0 112.201 17.297 112.201 38.632V49.974C112.202 71.308 129.498 88.605 150.833 88.605Z" fill="#EAB14D"/>
<path d="M269.55 322.684C252.707 328.031 234.781 330.915 216.176 330.915C215.795 330.915 215.403 330.915 215.022 330.905H215.012C203.68 330.843 192.606 329.7 181.881 327.578C175.381 326.301 169.014 324.663 162.802 322.685C167.85 297.827 189.834 279.119 216.176 279.119C242.518 279.119 264.502 297.825 269.55 322.684Z" fill="#EAB14D"/>
<path d="M392.426 141.24C392.426 238.581 313.515 317.492 216.173 317.492C215.792 317.492 215.4 317.492 215.019 317.482H215.009C203.677 317.42 192.603 316.276 181.879 314.155C100.948 298.197 39.9214 226.848 39.9214 141.24C39.9214 122.903 42.7234 105.225 47.9154 88.608H384.432C387.193 97.447 389.284 106.585 390.623 115.97C391.808 124.222 392.426 132.659 392.426 141.24V141.24Z" fill="#F6E266"/>
<path d="M181.879 314.155C100.948 298.197 39.9214 226.848 39.9214 141.24C39.9214 122.903 42.7234 105.225 47.9154 88.608H384.432C387.193 97.447 389.284 106.585 390.623 115.97H151.713C137.872 115.97 126.549 127.142 126.538 140.983V141.24C126.538 209.86 153.714 287.422 181.879 314.155V314.155Z" fill="#EAB14D"/>
<path d="M216.165 60.299L215.629 60.206L215.763 60.165L216.165 60.299Z" fill="#EAB14D"/>
<path d="M323.073 440.086H109.279C89.4208 440.086 73.3218 456.184 73.3218 476.043C73.3218 495.901 89.4198 512 109.279 512H323.073C342.931 512 359.03 495.902 359.03 476.043C359.03 456.185 342.932 440.086 323.073 440.086Z" fill="#F6E266"/>
<path d="M160.434 501.467C166.945 507.967 175.928 511.996 185.859 511.996H109.286C99.3548 511.996 90.3618 507.968 83.8508 501.467C77.3508 494.956 73.3228 485.974 73.3228 476.043C73.3228 456.181 89.4248 440.079 109.286 440.079H185.859C165.997 440.079 149.906 456.181 149.906 476.043C149.906 485.974 153.923 494.957 160.434 501.467V501.467Z" fill="#EAB14D"/>
<path d="M261.091 174.201L229.928 122.259C223.699 111.877 208.652 111.877 202.424 122.259L171.261 174.201C168.214 179.28 168.214 185.624 171.261 190.702L202.424 242.644C208.653 253.026 223.7 253.026 229.928 242.644L261.091 190.702C264.138 185.624 264.138 179.28 261.091 174.201Z" fill="#DA4A54"/>
<path d="M216.177 250.432C210.861 250.432 205.546 247.836 202.424 242.644L171.261 190.703C168.222 185.625 168.222 179.289 171.261 174.21L202.424 122.269C205.545 117.077 210.861 114.481 216.177 114.481C214.261 114.481 212.345 117.077 211.222 122.269L199.993 174.21C198.901 179.288 198.901 185.624 199.993 190.703L211.222 242.644C212.345 247.836 214.261 250.432 216.177 250.432V250.432Z" fill="#C32430"/>
</svg>
