<svg width="515" height="548" xmlns="http://www.w3.org/2000/svg">

 <g>
  <title>background</title>
  <rect fill="none" id="canvas_background" height="550" width="517" y="-1" x="-1"/>
 </g>
 <g>
  <title>Layer 1</title>
  <circle id="svg_1" fill="#E3E3E3" transform="rotate(-30 205.0595245361327,272.5222167968749) " r="200" cy="272.522194" cx="205.059517"/>
  <circle id="svg_2" fill="white" transform="rotate(-30 205.0595245361327,272.5222167968749) " r="185" cy="272.522194" cx="205.059517"/>
  <circle id="svg_3" fill="#363333" transform="rotate(-30 205.05851745605463,272.52221679687506) " r="170" cy="272.522194" cx="205.058517"/>
  <path id="svg_4" fill="#2A2438" d="m55.059517,12.714194l450,259.808l-450,259.807l0,-519.615z"/>
  <path id="svg_5" fill="#F4F4F4" d="m70.058517,38.695194l405,233.827l-405,233.827l0,-467.654z"/>
  <path id="svg_6" fill="black" d="m220.238517,310.812194c-40.256,23.242 -84.578,33.056 -118.567,26.249c-2.926,-0.585 -5.499,-2.309 -7.153,-4.791c-1.655,-2.483 -2.256,-5.521 -1.67,-8.446c0.585,-2.926 2.309,-5.499 4.791,-7.153c2.483,-1.655 5.521,-2.256 8.446,-1.67c28.781,5.761 67.248,-3.089 102.903,-23.674c35.656,-20.586 62.553,-49.474 71.954,-77.28c0.473,-1.399 1.217,-2.691 2.19,-3.803c0.973,-1.112 2.155,-2.021 3.479,-2.676c1.324,-0.655 2.764,-1.043 4.238,-1.141c1.474,-0.098 2.953,0.095 4.352,0.568c1.4,0.473 2.692,1.217 3.804,2.19c1.112,0.973 2.021,2.155 2.676,3.479c0.655,1.324 1.043,2.764 1.141,4.238c0.098,1.474 -0.095,2.953 -0.568,4.352c-11.099,32.839 -41.76,66.316 -82.016,89.558z"/>
  <line id="svg_7" stroke="#CDCDCD" y2="348.714194" x2="155.930517" y1="451.627194" x1="104.609517"/>
  <line id="svg_8" stroke="#CDCDCD" y2="267.663194" x2="294.323517" y1="271.612194" x1="409.254517"/>
  <line id="svg_9" stroke="#CDCDCD" y2="211.550194" x2="170.662517" y1="112.056194" x1="112.991517"/>
  <line id="svg_10" stroke="#CDCDCD" y2="197.773194" x2="203.970517" y1="143.935194" x1="204.283517"/>
  <line id="svg_11" stroke="#CDCDCD" y2="400.873194" x2="182.576517" y1="348.002194" x1="192.742517"/>
  <line id="svg_12" stroke="#CDCDCD" y2="313.513194" x2="333.641517" y1="289.337194" x1="283.371517"/>
  <line id="svg_13" stroke="#CDCDCD" y2="385.468194" x2="225.777517" y1="345.559194" x1="218.901517"/>
  <line id="svg_14" stroke="#CDCDCD" y2="339.805194" x2="300.804517" y1="317.229194" x1="267.184517"/>
  <line id="svg_15" stroke="#CDCDCD" y2="377.041194" x2="266.017517" y1="336.527194" x1="242.191517"/>
  <path id="svg_16" stroke="#CDCDCD" d="m241.432517,152.770194l-6.081,42.218"/>
  <path id="svg_17" stroke="#CDCDCD" d="m291.610517,179.827194l-14.338,21.773"/>
  <path id="svg_18" stroke="#CDCDCD" d="m314.451517,188.580194l-20.099,16.602"/>
  <path id="svg_19" stroke="#CDCDCD" d="m334.334517,199.644194l-22.254,12.244"/>
  <path id="svg_20" stroke="#CDCDCD" d="m269.455517,166.060194l-11.756,31.639"/>
  <path id="svg_21" fill="#F4F4F4" d="m163.063517,345.408194c-15.909,-16.687 -18.856,-27.504 -13.287,-49.444l-61.289,3.699l4.685,52.484l69.891,-6.739z"/>
  <path id="svg_22" fill="#F4F4F4" d="m291.850517,263.804194c-8.775,-20.627 -17.524,-27.839 -41.965,-30.678l38.092,-31.595l13.96,7.185l21.113,16.078l-31.2,39.01z"/>
  <path id="svg_23" fill="#F4F4F4" d="m175.045517,285.508194c-3.244,24.881 1.064,36.288 18.5,52.5l-55,5.5l-10.5,-47.5l47,-10.5z"/>
  <path id="svg_24" fill="#F4F4F4" d="m225.545517,255.508194c27.678,9.278 35.802,18.359 39,40.5l40,-48l-40,-30l-39,37.5z"/>
 </g>
</svg>