<svg width="535" height="495" xmlns="http://www.w3.org/2000/svg">

 <g>
  <title>background</title>
  <rect fill="none" id="canvas_background" height="497" width="537" y="-1" x="-1"/>
 </g>
 <g>
  <title>Layer 1</title>
  <circle id="svg_1" fill="#E3E3E3" transform="rotate(-10 241.41644287109366,301.20721435546875) " r="200" cy="301.207222" cx="241.416451"/>
  <circle id="svg_2" fill="white" transform="rotate(-10 241.41644287109366,301.20721435546875) " r="185" cy="301.207222" cx="241.416451"/>
  <circle id="svg_3" fill="#363333" transform="rotate(-10 241.41644287109366,301.20721435546875) " r="170" cy="301.207222" cx="241.416451"/>
  <path id="svg_4" fill="#2A2438" d="m189.322451,5.764822l334.002,398.0484l-511.721,90.23l177.719,-488.2784z"/>
  <path id="svg_5" fill="#F4F4F4" d="m193.664918,35.309122l300.602,358.2431l-460.549,81.208l159.947,-439.4511z"/>
  <path id="svg_6" fill="black" d="m242.584451,342.380222c-45.777,8.071 -90.783,2.135 -120.395,-15.887c-2.548,-1.55 -4.377,-4.05 -5.082,-6.949c-0.706,-2.898 -0.231,-5.959 1.319,-8.508c1.551,-2.548 4.051,-4.377 6.949,-5.082c2.899,-0.706 5.959,-0.231 8.508,1.319c25.075,15.258 64.248,20.098 104.794,12.948c40.546,-7.149 75.702,-25.095 94.045,-48.009c0.924,-1.153 2.065,-2.113 3.359,-2.825c1.295,-0.712 2.717,-1.162 4.185,-1.324c1.468,-0.163 2.954,-0.035 4.373,0.377c1.418,0.412 2.742,1.099 3.895,2.022c1.153,0.923 2.113,2.065 2.825,3.359c0.712,1.294 1.163,2.716 1.325,4.185c0.163,1.468 0.034,2.954 -0.377,4.372c-0.412,1.419 -1.099,2.743 -2.023,3.896c-21.661,27.062 -61.923,48.034 -107.7,56.106z"/>
  <line id="svg_7" stroke="#CDCDCD" y2="356.002222" x2="169.191451" y1="435.155222" x1="85.767451"/>
  <line id="svg_8" stroke="#CDCDCD" y2="327.171222" x2="326.960451" y1="370.191222" x1="433.609451"/>
  <line id="svg_9" stroke="#CDCDCD" y2="232.147222" x2="229.947451" y1="118.930222" x1="209.783451"/>
  <line id="svg_10" stroke="#CDCDCD" y2="230.593222" x2="265.958451" y1="180.109222" x1="284.667451"/>
  <line id="svg_11" stroke="#CDCDCD" y2="414.128222" x2="176.390451" y1="367.923222" x1="204.026451"/>
  <line id="svg_12" stroke="#CDCDCD" y2="383.703222" x2="348.224451" y1="343.792222" x1="309.254451"/>
  <line id="svg_13" stroke="#CDCDCD" y2="414.427222" x2="222.255451" y1="374.573222" x1="229.443451"/>
  <line id="svg_14" stroke="#CDCDCD" y2="397.179222" x2="308.376451" y1="364.466222" x1="284.504451"/>
  <line id="svg_15" stroke="#CDCDCD" y2="420.272222" x2="262.950451" y1="374.052222" x1="254.417451"/>
  <path id="svg_16" stroke="#CDCDCD" d="m316.553451,201.117222l-20.154,37.593"/>
  <path id="svg_17" stroke="#CDCDCD" d="m354.452451,243.705222l-20.92,15.555"/>
  <path id="svg_18" stroke="#CDCDCD" d="m372.921451,259.741222l-24.566,8.727"/>
  <path id="svg_19" stroke="#CDCDCD" d="m387.821451,276.939222l-25.1,3.894"/>
  <path id="svg_20" stroke="#CDCDCD" d="m338.341451,223.191222l-21.867,25.71"/>
  <path id="svg_21" fill="#F4F4F4" d="m157.371451,298.229222l-36.935,-6.49l-8.826,50.231l36.934,6.49c-12.867,-21.722 -9.638,-32.565 8.827,-50.231z"/>
  <path id="svg_22" fill="#F4F4F4" d="m346.082451,310.575222c-1.689,-20.178 -7.573,-29.281 -33.859,-38.44l14.648,-11.133l17.236,3.029l8.551,9.118l12.324,19.426l-18.9,18z"/>
 </g>
</svg>