<svg width="505.99999999999994" height="534" xmlns="http://www.w3.org/2000/svg">

 <g>
  <title>background</title>
  <rect fill="none" id="canvas_background" height="536" width="508" y="-1" x="-1"/>
 </g>
 <g>
  <title>Layer 1</title>
  <circle id="svg_1" fill="#E3E3E3" transform="rotate(-20 205.24359130859392,288.64749145507824) " r="200" cy="288.647469" cx="205.243584"/>
  <circle id="svg_2" fill="white" transform="rotate(-20 205.24359130859392,288.64749145507824) " r="185" cy="288.647469" cx="205.243584"/>
  <circle id="svg_3" fill="#363333" transform="rotate(-20 205.24359130859392,288.64749145507824) " r="170" cy="288.647469" cx="205.243584"/>
  <path id="svg_4" fill="#2A2438" d="m102.637584,6.739469l398.048,334.002l-488.278,177.719l90.23,-511.721z"/>
  <path id="svg_5" fill="#F4F4F4" d="m112.897584,34.930469l358.244,300.602l-439.451,159.947l81.207,-460.549z"/>
  <path id="svg_6" fill="black" d="m213.542584,328.991469c-43.68,15.898 -89.033,17.867 -121.324,5.262c-2.779,-1.085 -5.014,-3.229 -6.212,-5.961c-1.199,-2.732 -1.263,-5.829 -0.178,-8.608c1.084,-2.779 3.228,-5.014 5.961,-6.212c2.732,-1.199 5.828,-1.263 8.607,-0.178c27.343,10.672 66.762,8.636 105.451,-5.446c38.688,-14.081 70.193,-37.859 84.28,-63.61c0.709,-1.296 1.666,-2.44 2.817,-3.366c1.151,-0.926 2.473,-1.616 3.891,-2.031c1.418,-0.415 2.903,-0.547 4.372,-0.388c1.468,0.159 2.891,0.606 4.187,1.315c1.296,0.709 2.44,1.667 3.366,2.818c0.926,1.151 1.616,2.473 2.031,3.891c0.415,1.417 0.547,2.903 0.388,4.371c-0.16,1.469 -0.606,2.892 -1.315,4.188c-16.634,30.413 -52.642,58.057 -96.322,73.955z"/>
  <line id="svg_7" stroke="#CDCDCD" y2="355.151469" x2="143.630584" y1="447.588469" x1="75.219584"/>
  <line id="svg_8" stroke="#CDCDCD" y2="299.362469" x2="293.995584" y1="323.209469" x1="406.494584"/>
  <line id="svg_9" stroke="#CDCDCD" y2="222.628469" x2="181.956584" y1="114.632469" x1="142.439584"/>
  <line id="svg_10" stroke="#CDCDCD" y2="214.844469" x2="217.150584" y1="161.879469" x1="226.808584"/>
  <line id="svg_11" stroke="#CDCDCD" y2="411.143469" x2="160.813584" y1="360.842469" x1="180.006584"/>
  <line id="svg_12" stroke="#CDCDCD" y2="351.343469" x2="324.754584" y1="318.805469" x1="279.445584"/>
  <line id="svg_13" stroke="#CDCDCD" y2="403.474469" x2="206.033584" y1="362.978469" x1="206.192584"/>
  <line id="svg_14" stroke="#CDCDCD" y2="371.533469" x2="287.851584" y1="343.462469" x1="258.662584"/>
  <line id="svg_15" stroke="#CDCDCD" y2="402.164469" x2="247.126584" y1="358.127469" x1="230.696584"/>
  <path id="svg_16" stroke="#CDCDCD" d="m261.858584,177.030469l-13.32,40.521"/>
  <path id="svg_17" stroke="#CDCDCD" d="m306.576584,212.390469l-17.901,18.952"/>
  <path id="svg_18" stroke="#CDCDCD" d="m327.549584,224.976469l-22.676,12.86"/>
  <path id="svg_19" stroke="#CDCDCD" d="m345.209584,239.324469l-24.042,8.194"/>
  <path id="svg_20" stroke="#CDCDCD" d="m287.148584,194.985469l-17.071,29.116"/>
  <path id="svg_21" fill="#F4F4F4" d="m151.229584,353.133469c-12.77,-19.196 -13.794,-30.36 -4.5,-51l-61,-7l-4.5,52.5l70,5.5z"/>
  <path id="svg_22" fill="#F4F4F4" d="m292.229584,295.133469c-5.06,-21.838 -12.423,-30.459 -36,-37.5l43,-24.5l12.5,9.5l18,19.5l-37.5,33z"/>
 </g>
</svg>