<svg width="528" height="504.99999999999994" xmlns="http://www.w3.org/2000/svg">

 <g>
  <title>background</title>
  <rect fill="none" id="canvas_background" height="507" width="530" y="-1" x="-1"/>
 </g>
 <g>
  <title>Layer 1</title>
  <circle id="svg_1" fill="#E3E3E3" r="200" cy="297.758966" cx="261.155404"/>
  <circle id="svg_2" fill="white" r="185" cy="297.758966" cx="261.155404"/>
  <circle id="svg_3" fill="#363333" r="170" cy="297.758966" cx="261.155404"/>
  <path id="svg_4" fill="#2A2438" d="m261.155404,-2.241034l259.808,450l-519.6156,0l259.8076,-450z"/>
  <path id="svg_5" fill="#F4F4F4" d="m261.155404,27.758966l233.827,405l-467.6539,0l233.8269,-405z"/>
  <line id="svg_6" stroke="#CDCDCD" y2="339.178966" x2="180.513404" y1="402.643966" x1="84.611404"/>
  <line id="svg_7" stroke="#CDCDCD" y2="338.182966" x2="340.890404" y1="399.068966" x1="438.449404"/>
  <line id="svg_8" stroke="#CDCDCD" y2="227.756966" x2="261.853404" y1="112.757966" x1="261.655404"/>
  <line id="svg_9" stroke="#CDCDCD" y2="232.479966" x2="297.586404" y1="186.011966" x1="324.777404"/>
  <line id="svg_10" stroke="#CDCDCD" y2="397.671966" x2="177.508404" y1="356.968966" x1="212.748404"/>
  <line id="svg_11" stroke="#CDCDCD" y2="397.548966" x2="352.015404" y1="351.476966" x1="320.568404"/>
  <line id="svg_12" stroke="#CDCDCD" y2="405.931966" x2="222.624404" y1="367.931966" x1="236.624404"/>
  <line id="svg_13" stroke="#CDCDCD" y2="403.899966" x2="310.432404" y1="367.538966" x1="292.604404"/>
  <line id="svg_14" stroke="#CDCDCD" y2="418.754966" x2="261.687404" y1="371.754966" x1="261.310404"/>
  <path id="svg_15" stroke="#CDCDCD" d="m352.530404,212.236966l-26.375,33.522"/>
  <path id="svg_16" stroke="#CDCDCD" d="m382.458404,260.758966l-23.303,11.686"/>
  <path id="svg_17" stroke="#CDCDCD" d="m397.863404,279.758966l-25.708,4.329"/>
  <path id="svg_18" stroke="#CDCDCD" d="m409.550404,299.281966l-25.395,-0.523"/>
  <path id="svg_19" stroke="#CDCDCD" d="m370.155404,237.758966l-26,21.522"/>
  <path id="svg_20" fill="black" d="m255.155404,338.508966c-46.483,0 -89.775,-13.662 -115.806,-36.551c-2.241,-1.97 -3.608,-4.749 -3.799,-7.726c-0.192,-2.978 0.807,-5.909 2.777,-8.15c1.969,-2.241 4.748,-3.607 7.726,-3.799c2.977,-0.191 5.908,0.807 8.149,2.777c22.044,19.38 59.782,30.949 100.953,30.949c41.172,0 78.91,-11.569 100.954,-30.949c1.109,-0.975 2.4,-1.722 3.798,-2.199c1.399,-0.476 2.877,-0.673 4.351,-0.578c1.474,0.095 2.915,0.479 4.241,1.131c1.326,0.652 2.51,1.559 3.485,2.668c0.976,1.11 1.723,2.4 2.199,3.799c0.477,1.398 0.673,2.876 0.578,4.351c-0.095,1.474 -0.479,2.915 -1.131,4.24c-0.652,1.326 -1.558,2.51 -2.668,3.486c-26.032,22.889 -69.323,36.551 -115.807,36.551z"/>
 </g>
</svg>