<svg width="518" height="556" xmlns="http://www.w3.org/2000/svg">

 <g>
  <title>background</title>
  <rect fill="none" id="canvas_background" height="558" width="520" y="-1" x="-1"/>
 </g>
 <g>
  <title>Layer 1</title>
  <circle id="svg_1" fill="#E3E3E3" transform="rotate(-32 206.43408203124994,269.24160766601557) " r="200" cy="269.24159" cx="206.434071"/>
  <circle id="svg_2" fill="white" transform="rotate(-32 206.43408203124994,269.24160766601557) " r="185" cy="269.24159" cx="206.434071"/>
  <circle id="svg_3" fill="#363333" transform="rotate(-32 206.43408203124994,269.24160766601557) " r="170" cy="269.24159" cx="206.434071"/>
  <path id="svg_4" fill="#2A2438" d="m47.458071,14.82759l458.793,243.944l-440.658,275.354l-18.135,-519.298z"/>
  <path id="svg_5" fill="#F4F4F4" d="m63.356071,40.26859l412.914,219.55l-396.593,247.819l-16.321,-467.369z"/>
  <path id="svg_6" fill="black" d="m222.940071,306.97859c-39.42,24.633 -83.373,35.988 -117.579,30.371c-2.944,-0.483 -5.575,-2.115 -7.316,-4.539c-1.74,-2.423 -2.446,-5.438 -1.963,-8.382c0.483,-2.944 2.116,-5.576 4.539,-7.316c2.423,-1.74 5.438,-2.447 8.382,-1.964c28.965,4.754 67.099,-5.433 102.014,-27.251c34.915,-21.817 60.789,-51.626 69.213,-79.743c0.424,-1.415 1.123,-2.733 2.056,-3.878c0.933,-1.145 2.083,-2.095 3.384,-2.795c1.3,-0.701 2.726,-1.139 4.195,-1.288c1.47,-0.15 2.955,-0.009 4.37,0.415c1.415,0.424 2.733,1.123 3.878,2.056c1.145,0.933 2.095,2.083 2.795,3.384c0.701,1.3 1.139,2.726 1.288,4.195c0.15,1.47 0.009,2.955 -0.415,4.37c-9.947,33.206 -39.421,67.733 -78.841,92.365z"/>
  <line id="svg_7" stroke="#CDCDCD" y2="347.10259" x2="159.995071" y1="451.74259" x1="112.297071"/>
  <line id="svg_8" stroke="#CDCDCD" y2="261.26959" x2="295.475071" y1="261.20559" x1="410.474071"/>
  <line id="svg_9" stroke="#CDCDCD" y2="209.50659" x2="169.930071" y1="112.08759" x1="108.822071"/>
  <line id="svg_10" stroke="#CDCDCD" y2="194.57659" x2="202.736071" y1="140.75959" x1="201.171071"/>
  <line id="svg_11" stroke="#CDCDCD" y2="398.29959" x2="188.444071" y1="345.10659" x1="196.759071"/>
  <line id="svg_12" stroke="#CDCDCD" y2="305.71959" x2="336.368071" y1="283.31359" x1="285.285071"/>
  <line id="svg_13" stroke="#CDCDCD" y2="381.39559" x2="231.081071" y1="341.75059" x1="222.817071"/>
  <line id="svg_14" stroke="#CDCDCD" y2="333.14159" x2="304.469071" y1="311.75259" x1="270.082071"/>
  <line id="svg_15" stroke="#CDCDCD" y2="371.56959" x2="271.002071" y1="331.91159" x1="245.776071"/>
  <path id="svg_16" stroke="#CDCDCD" d="m238.605071,148.29359l-4.604,42.405"/>
  <path id="svg_17" stroke="#CDCDCD" d="m289.698071,173.58259l-13.569,22.26"/>
  <path id="svg_18" stroke="#CDCDCD" d="m312.830071,181.53259l-19.507,17.294"/>
  <path id="svg_19" stroke="#CDCDCD" d="m333.087071,191.89659l-21.813,13.013"/>
  <path id="svg_20" stroke="#CDCDCD" d="m267.076071,160.59759l-10.644,32.03"/>
  <path id="svg_21" fill="#F4F4F4" d="m167.008071,343.54859c-16.483,-16.121 -19.806,-26.829 -15.005,-48.95l-61.123,5.836l6.514,52.288l69.614,-9.174z"/>
  <path id="svg_22" fill="#F4F4F4" d="m292.868071,257.50059c-9.49,-20.308 -18.485,-27.21 -43.01,-29.196l36.966,-32.904l14.202,6.693l21.661,15.332l-29.819,40.075z"/>
  <path id="svg_23" fill="#F4F4F4" d="m176.892071,283.26759c-2.374,24.979 2.329,36.229 20.321,51.822l-54.775,7.416l-12.151,-47.104l46.605,-12.134z"/>
  <path id="svg_24" fill="#F4F4F4" d="m226.314071,251.52359c27.985,8.306 36.421,17.098 40.39,39.114l38.3,-49.367l-41.023,-28.585l-37.667,38.838z"/>
  <path id="svg_25" fill="#F4F4F4" d="m215.626071,317.43459l-20,-38l-34,9l17.5,44l36.5,-15z"/>
  <path id="svg_26" fill="#F4F4F4" d="m243.126071,301.43459l-27.5,-35l31.5,-18.5l25,29l-29,24.5z"/>
  <path id="svg_27" fill="#F4F4F4" d="m207.544071,327.35159l-37.5,-48.5l54,-28.5l37.5,42l-54,35z"/>
 </g>
</svg>