<svg width="600" height="591" viewBox="0 0 600 591" fill="none" xmlns="http://www.w3.org/2000/svg">
<ellipse cx="300" cy="295.5" rx="200" ry="197" fill="#E3E3E3"/>
<ellipse cx="300" cy="295.5" rx="185" ry="182.225" fill="white"/>
<ellipse cx="300" cy="295.5" rx="170" ry="167.45" fill="#363333"/>
<path d="M300 0L559.808 443.25H40.1924L300 0Z" fill="#2A2438"/>
<path d="M300 29.55L533.827 428.475H66.1731L300 29.55Z" fill="#F4F4F4"/>
<line y1="-0.5" x2="114.476" y2="-0.5" transform="matrix(0.837738 -0.546072 0.557672 0.830061 123.732 399.222)" stroke="#CDCDCD"/>
<line y1="-0.5" x2="114.518" y2="-0.5" transform="matrix(-0.851906 -0.523695 0.535212 -0.844718 477.559 394.873)" stroke="#CDCDCD"/>
<line x1="300.5" y1="113.274" x2="300.695" y2="226.548" stroke="#CDCDCD"/>
<line y1="-0.5" x2="53.2385" y2="-0.5" transform="matrix(-0.510731 0.859741 -0.866395 -0.499359 363.19 185.18)" stroke="#CDCDCD"/>
<line y1="-0.5" x2="53.3788" y2="-0.5" transform="matrix(-0.660179 0.751108 -0.760898 -0.648871 251.215 353.499)" stroke="#CDCDCD"/>
<line y1="-0.5" x2="55.212" y2="-0.5" transform="matrix(0.569573 0.821941 -0.829876 0.557948 359 348.69)" stroke="#CDCDCD"/>
<line y1="-0.5" x2="39.9625" y2="-0.5" transform="matrix(-0.350328 0.936627 -0.940017 -0.341127 275 364.45)" stroke="#CDCDCD"/>
<line y1="-0.5" x2="40.0079" y2="-0.5" transform="matrix(0.445612 0.895226 -0.900487 0.434884 331 364.45)" stroke="#CDCDCD"/>
<line y1="-0.5" x2="46.2963" y2="-0.5" transform="matrix(0.00815024 0.999967 -0.999969 0.00790758 299.655 368.39)" stroke="#CDCDCD"/>
<path d="M391.376 211.261L365 244.28" stroke="#CDCDCD"/>
<path d="M421.304 259.055L398 270.566" stroke="#CDCDCD"/>
<path d="M436.708 277.77L411 282.034" stroke="#CDCDCD"/>
<path d="M448.395 297L423 296.485" stroke="#CDCDCD"/>
<path d="M409 236.4L383 257.599" stroke="#CDCDCD"/>
<path d="M300 226.55C255.211 226.55 220.32 252.837 177.5 295.5C214.359 331.968 245.312 364.45 300 364.45C354.633 364.45 394.828 323.295 422.5 296.254C394.172 264.58 354.031 226.55 300 226.55V226.55ZM300 344.681C272.984 344.681 251 322.595 251 295.5C251 268.351 272.984 246.319 300 246.319C327.016 246.319 349 268.405 349 295.5C349 322.649 327.016 344.681 300 344.681Z" fill="black"/>
<path d="M300 278.262C300 274.007 301.586 270.129 304.156 267.112C302.789 266.896 301.422 266.789 300 266.789C284.25 266.789 271.398 279.663 271.398 295.5C271.398 311.337 284.25 324.211 300 324.211C315.75 324.211 328.602 311.337 328.602 295.5C328.602 294.261 328.492 293.022 328.383 291.783C325.375 294.099 321.656 295.5 317.555 295.5C307.82 295.5 300 287.797 300 278.262Z" fill="black"/>
<path d="M178 295.5C178 295.5 295 187.612 423 295.5C385.5 241.982 284 167.057 178 295.5Z" fill="#F4F4F4"/>
<path d="M177 295C212.402 278.352 323.297 245.267 422 295C323.8 208.067 217.75 258.778 177 295Z" fill="#F4F4F4"/>
<path d="M177 295C219.536 285.055 334.01 273.54 423 295C341.538 206.256 225.057 258.023 177 295Z" fill="#F4F4F4"/>
<path d="M423 287.5V296H173V282H423V287.5Z" fill="#F4F4F4"/>
<path d="M170 291C271.834 376.51 328.498 371.02 429 291C335.451 392.019 279.583 403.169 170 291Z" fill="#F4F4F4"/>
<path d="M424.15 295.639C320.646 323.459 215.619 307.231 176.044 295.639H173L422.628 290.748L424.15 295.639Z" fill="#F4F4F4"/>
<path d="M181.5 294C222.833 320.5 328.1 357.6 418.5 294H181.5Z" fill="#F4F4F4"/>
</svg>
